<svg preserveAspectRatio="none" width="100%" height="100%" overflow="visible" style="display: block;" viewBox="0 0 64 64" fill="none" xmlns="http://www.w3.org/2000/svg">
<g id="Icon">
<rect width="64" height="64" rx="32" fill="var(--fill-0, #FFD700)"/>
<path id="Union" d="M32.2387 34.6216C32.3717 34.6216 32.6187 34.6598 32.8276 34.8687L38.5454 40.5864C39.8941 41.9351 41.3383 42.2778 43.0669 42.2778L36.0005 49.3257C34.9319 50.3929 33.4833 50.9916 31.9731 50.9917C30.463 50.9917 29.0143 50.3928 27.9458 49.3257L20.8979 42.2964C24.2599 42.2963 25.2667 41.2518 25.9126 40.606L31.6499 34.8687C31.8588 34.6598 32.1058 34.6216 32.2387 34.6216ZM21.81 23.5845C22.8546 23.5846 23.8422 24.0024 24.5639 24.7241L30.3012 30.48C30.8223 30.9823 31.515 31.2676 32.2387 31.2778C32.9416 31.2778 33.6443 31.0118 34.1762 30.48L39.8755 24.7808C40.5783 24.0399 41.6045 23.6226 42.6303 23.6226H45.0239L49.2983 27.9155C50.3811 28.9928 50.9933 30.4555 51.0005 31.9829C51.0075 33.5101 50.4089 34.9777 49.3364 36.0649L45.062 40.3589H42.6684C41.6236 40.3589 40.6354 39.9411 39.9135 39.2192L34.1958 33.5005C33.6639 32.9687 32.961 32.7027 32.2583 32.7026C31.5554 32.7026 30.8517 32.9686 30.3198 33.5005L24.5835 39.2378C23.8426 39.9597 22.8544 40.3774 21.8286 40.3774H19.0171L14.6665 36.0083C13.5993 34.9397 12.9995 33.4912 12.9995 31.981C12.9995 30.4707 13.5992 29.0222 14.6665 27.9536L19.0171 23.5845H21.81ZM32.0298 13.0083C33.54 13.0083 34.9885 13.608 36.0571 14.6753L43.1245 21.7231C41.3958 21.7231 39.857 22.0461 38.5083 23.4517L32.8276 29.1313C32.6756 29.2833 32.4477 29.3784 32.2387 29.3784C32.0298 29.3784 31.8018 29.2833 31.6499 29.1313L25.9126 23.395C25.3237 22.8061 24.298 21.7036 20.9546 21.7036L28.0024 14.6753C29.071 13.6081 30.5195 13.0083 32.0298 13.0083Z" fill="var(--fill-0, #141414)"/>
</g>
</svg>
