<svg preserveAspectRatio="none" width="100%" height="100%" overflow="visible" style="display: block;" viewBox="0 0 64 64" fill="none" xmlns="http://www.w3.org/2000/svg">
<g id="Icon">
<rect width="64" height="64" rx="32" fill="var(--fill-0, #FFD700)"/>
<path id="Union" d="M42.3633 16.4551C43.3132 16.4551 44.0907 17.2317 44.0908 18.1816V19.9092H45.0586C45.784 19.9112 46.4906 20.1403 47.0791 20.5645C47.6677 20.9889 48.1088 21.5875 48.3398 22.2754L50.8271 29.7373C50.948 30.0999 51 30.4626 51 30.8252V42.3643H45.8184C45.8181 45.2312 43.5037 47.5457 40.6367 47.5459C37.7696 47.5459 35.4543 45.2314 35.4541 42.3643H28.5459C28.5457 45.2314 26.2304 47.5459 23.3633 47.5459C20.4963 47.5457 18.1819 45.2312 18.1816 42.3643H16.4541C14.5543 42.364 13 40.809 13 38.9092V30.2725H32V23.3633C32.0002 21.4636 33.5545 19.9094 35.4541 19.9092H38.9092V18.1816C38.9093 17.2317 39.6868 16.4551 40.6367 16.4551H42.3633ZM23.3633 40.6367C22.4134 40.6369 21.6367 41.4144 21.6367 42.3643C21.6369 43.314 22.4136 44.0906 23.3633 44.0908C24.3131 44.0908 25.0906 43.3141 25.0908 42.3643C25.0908 41.4143 24.3133 40.6367 23.3633 40.6367ZM40.6367 40.6367C39.6867 40.6367 38.9092 41.4143 38.9092 42.3643C38.9094 43.3141 39.6869 44.0908 40.6367 44.0908C41.5864 44.0906 42.3631 43.314 42.3633 42.3643C42.3633 41.4144 41.5866 40.6369 40.6367 40.6367ZM35.4541 23.3633V30.2725H47.3555L45.0586 23.3633H35.4541ZM30.2725 19.9092V22.5H28.5459V25.9551H30.2725V28.5459H13V25.9551H14.7275V22.5H13V19.9092H30.2725ZM17.3184 22.5V25.9551H20.3408V22.5H17.3184ZM22.9316 22.5V25.9551H25.9541V22.5H22.9316Z" fill="var(--fill-0, #141414)"/>
</g>
</svg>
