<svg preserveAspectRatio="none" width="100%" height="100%" overflow="visible" style="display: block;" viewBox="0 0 10.5 9.32422" fill="none" xmlns="http://www.w3.org/2000/svg">
<path id="Icon" d="M1.17578 3.5H9.32422L8.44922 0.875H2.05078L1.17578 3.5V3.5M7.83398 6.13867C8.00716 6.31185 8.21224 6.39844 8.44922 6.39844C8.6862 6.39844 8.89128 6.31185 9.06445 6.13867C9.23763 5.96549 9.32422 5.76042 9.32422 5.52344C9.32422 5.28646 9.23763 5.08138 9.06445 4.9082C8.89128 4.73503 8.6862 4.64844 8.44922 4.64844C8.21224 4.64844 8.00716 4.73503 7.83398 4.9082C7.66081 5.08138 7.57422 5.28646 7.57422 5.52344C7.57422 5.76042 7.66081 5.96549 7.83398 6.13867V6.13867M1.43555 6.13867C1.60872 6.31185 1.8138 6.39844 2.05078 6.39844C2.28776 6.39844 2.49284 6.31185 2.66602 6.13867C2.83919 5.96549 2.92578 5.76042 2.92578 5.52344C2.92578 5.28646 2.83919 5.08138 2.66602 4.9082C2.49284 4.73503 2.28776 4.64844 2.05078 4.64844C1.8138 4.64844 1.60872 4.73503 1.43555 4.9082C1.26237 5.08138 1.17578 5.28646 1.17578 5.52344C1.17578 5.76042 1.26237 5.96549 1.43555 6.13867V6.13867M9.29688 0.574219L10.5 4.07422V8.75C10.5 8.91406 10.4453 9.05078 10.3359 9.16016C10.2266 9.26953 10.0898 9.32422 9.92578 9.32422H9.32422C9.16016 9.32422 9.02344 9.26953 8.91406 9.16016C8.80469 9.05078 8.75 8.91406 8.75 8.75V8.14844H1.75V8.75C1.75 8.91406 1.69531 9.05078 1.58594 9.16016C1.47656 9.26953 1.33984 9.32422 1.17578 9.32422H0.574219C0.410156 9.32422 0.273438 9.26953 0.164062 9.16016C0.0546875 9.05078 0 8.91406 0 8.75V4.07422L1.20312 0.574219C1.3125 0.191406 1.59505 0 2.05078 0H8.44922C8.90495 0 9.1875 0.191406 9.29688 0.574219V0.574219" fill="var(--fill-0, #9CA3AF)"/>
</svg>
