<svg preserveAspectRatio="none" width="100%" height="100%" overflow="visible" style="display: block;" viewBox="0 0 36 32" fill="none" xmlns="http://www.w3.org/2000/svg">
<path id="Vector" d="M33.804 10.9394L31.338 3.64651C30.9812 2.58181 30.2929 1.65583 29.3716 1.00092C28.4502 0.346008 27.3429 -0.00430935 26.208 4.00146e-05H9.81C8.67571 -0.0015996 7.5697 0.34977 6.64888 1.0043C5.72806 1.65883 5.03919 2.58328 4.68 3.64651L2.214 10.9394C0.918 11.4731 0 12.7538 0 14.2124V23.1062C0.00379213 23.727 0.171932 24.3361 0.487708 24.8728C0.803485 25.4095 1.2559 25.8552 1.8 26.1657V30.2212C1.8 31.1996 2.61 32 3.6 32H5.4C6.39 32 7.2 31.1996 7.2 30.2212V26.6637H28.8V30.2212C28.8 31.1996 29.61 32 30.6 32H32.4C33.39 32 34.2 31.1996 34.2 30.2212V26.1657C34.7441 25.8552 35.1965 25.4095 35.5123 24.8728C35.8281 24.3361 35.9962 23.727 36 23.1062V14.2124C36 12.736 35.082 11.4731 33.786 10.9394H33.804ZM30.618 18.6593C30.618 20.1356 29.412 21.3274 27.918 21.3274C26.424 21.3274 25.218 20.1356 25.218 18.6593C25.218 17.1829 26.424 15.9911 27.918 15.9911C29.412 15.9911 30.618 17.1829 30.618 18.6593ZM10.818 18.6593C10.818 20.1356 9.612 21.3274 8.118 21.3274C6.624 21.3274 5.418 20.1356 5.418 18.6593C5.418 17.1829 6.624 15.9911 8.118 15.9911C9.612 15.9911 10.818 17.1829 10.818 18.6593ZM9.81 3.53978H26.226C26.6034 3.53882 26.9715 3.65508 27.2783 3.87213C27.5852 4.08918 27.8152 4.39604 27.936 4.74934L29.934 10.6548H6.12L8.118 4.74934C8.23875 4.39604 8.46882 4.08918 8.77567 3.87213C9.08252 3.65508 9.45064 3.53882 9.828 3.53978H9.81Z" fill="var(--fill-0, #FFD700)"/>
</svg>
