<svg preserveAspectRatio="none" width="100%" height="100%" overflow="visible" style="display: block;" viewBox="0 0 24 24" fill="none" xmlns="http://www.w3.org/2000/svg">
<path id="Icon" d="M11.5942 9.14286V5.71429H8.11594V3.42857H11.5942V0H13.913V3.42857H17.3913V5.71429H13.913V9.14286H11.5942ZM6.95652 24C6.31884 24 5.77295 23.7762 5.31884 23.3286C4.86473 22.881 4.63768 22.3429 4.63768 21.7143C4.63768 21.0857 4.86473 20.5476 5.31884 20.1C5.77295 19.6524 6.31884 19.4286 6.95652 19.4286C7.5942 19.4286 8.1401 19.6524 8.5942 20.1C9.04831 20.5476 9.27536 21.0857 9.27536 21.7143C9.27536 22.3429 9.04831 22.881 8.5942 23.3286C8.1401 23.7762 7.5942 24 6.95652 24ZM18.5507 24C17.913 24 17.3671 23.7762 16.913 23.3286C16.4589 22.881 16.2319 22.3429 16.2319 21.7143C16.2319 21.0857 16.4589 20.5476 16.913 20.1C17.3671 19.6524 17.913 19.4286 18.5507 19.4286C19.1884 19.4286 19.7343 19.6524 20.1884 20.1C20.6425 20.5476 20.8696 21.0857 20.8696 21.7143C20.8696 22.3429 20.6425 22.881 20.1884 23.3286C19.7343 23.7762 19.1884 24 18.5507 24ZM0 3.42857V1.14286H3.7971L8.72464 11.4286H16.8406L21.3623 3.42857H24L18.8985 12.5143C18.686 12.8952 18.401 13.1905 18.0435 13.4C17.686 13.6095 17.2947 13.7143 16.8696 13.7143H8.23188L6.95652 16H20.8696V18.2857H6.95652C6.08696 18.2857 5.42512 17.9143 4.97101 17.1714C4.51691 16.4286 4.50241 15.6762 4.92754 14.9143L6.49275 12.1143L2.31884 3.42857H0Z" fill="var(--fill-0, black)"/>
</svg>
