<svg preserveAspectRatio="none" width="100%" height="100%" overflow="visible" style="display: block;" viewBox="0 0 40 40" fill="none" xmlns="http://www.w3.org/2000/svg">
<g id="Frame 24">
<rect width="40" height="40" rx="20" fill="var(--fill-0, #FFD700)"/>
<path id="Icon" d="M19.5942 17.1429V13.7143H16.1159V11.4286H19.5942V8H21.913V11.4286H25.3913V13.7143H21.913V17.1429H19.5942ZM14.9565 32C14.3188 32 13.7729 31.7762 13.3188 31.3286C12.8647 30.881 12.6377 30.3429 12.6377 29.7143C12.6377 29.0857 12.8647 28.5476 13.3188 28.1C13.7729 27.6524 14.3188 27.4286 14.9565 27.4286C15.5942 27.4286 16.1401 27.6524 16.5942 28.1C17.0483 28.5476 17.2754 29.0857 17.2754 29.7143C17.2754 30.3429 17.0483 30.881 16.5942 31.3286C16.1401 31.7762 15.5942 32 14.9565 32ZM26.5507 32C25.913 32 25.3671 31.7762 24.913 31.3286C24.4589 30.881 24.2319 30.3429 24.2319 29.7143C24.2319 29.0857 24.4589 28.5476 24.913 28.1C25.3671 27.6524 25.913 27.4286 26.5507 27.4286C27.1884 27.4286 27.7343 27.6524 28.1884 28.1C28.6425 28.5476 28.8696 29.0857 28.8696 29.7143C28.8696 30.3429 28.6425 30.881 28.1884 31.3286C27.7343 31.7762 27.1884 32 26.5507 32ZM8 11.4286V9.14286H11.7971L16.7246 19.4286H24.8406L29.3623 11.4286H32L26.8985 20.5143C26.686 20.8952 26.401 21.1905 26.0435 21.4C25.686 21.6095 25.2947 21.7143 24.8696 21.7143H16.2319L14.9565 24H28.8696V26.2857H14.9565C14.087 26.2857 13.4251 25.9143 12.971 25.1714C12.5169 24.4286 12.5024 23.6762 12.9275 22.9143L14.4928 20.1143L10.3188 11.4286H8Z" fill="var(--fill-0, black)"/>
</g>
</svg>
