<svg preserveAspectRatio="none" width="100%" height="100%" overflow="visible" style="display: block;" viewBox="0 0 128 97" fill="none" xmlns="http://www.w3.org/2000/svg">
<path id="Logo" d="M34.9757 18.3369C33.777 18.4209 32.6743 18.7688 31.6675 19.3686C30.6606 19.9685 30.0613 20.7363 29.8815 21.672V38.2278H15.0187C13.856 38.3478 12.7653 38.6957 11.7585 39.2835C10.7517 39.8594 10.1523 40.6392 9.9725 41.5989V38.2278V18.3368H5.04622C3.88354 18.4208 2.79279 18.7688 1.78602 19.3686C0.779178 19.9684 0.17985 20.7363 0 21.672V38.2277V48.2092V68.1002H9.9725V48.2092H29.8815V68.1002H39.854V48.2092V38.2277V18.3367H34.9757V18.3369ZM63.7562 13.4683H55.0744L49.9475 3.84399L56.0094 5.64866L56.029 5.66237C55.8855 6.01996 55.8063 6.41034 55.8063 6.81925C55.8063 8.53416 57.1953 9.92435 58.9085 9.92435C60.6219 9.92435 62.0108 8.5341 62.0108 6.81925C62.0108 5.46474 61.1442 4.31298 59.9356 3.88864L63.7562 0L67.5767 3.88864C66.3682 4.31298 65.5015 5.46474 65.5015 6.81925C65.5015 8.53416 66.8905 9.92435 68.6038 9.92435C70.3171 9.92435 71.706 8.5341 71.706 6.81925C71.706 6.41034 71.6268 6.01996 71.4833 5.66237L71.503 5.64866L77.5649 3.84399L72.438 13.4683H63.7561H63.7562ZM55.2967 14.7297H72.2453V16.9262H55.2967V14.7297ZM81.3379 7.68426L80.2917 10.5388L77.3143 10.6744L79.6452 12.5741L78.8512 15.5125L81.3379 13.8321L83.8245 15.5125L83.0305 12.5741L85.3614 10.6744L82.3839 10.5388L81.3379 7.68426ZM93.6714 9.07894L92.6128 11.9355L89.5994 12.0711L91.9584 13.9722L91.1548 16.9126L93.6714 15.2309L96.1881 16.9126L95.3845 13.9722L97.7435 12.0711L94.7302 11.9355L93.6714 9.07894ZM46.2324 7.68426L47.2784 10.5388L50.2559 10.6744L47.925 12.5741L48.719 15.5125L46.2324 13.8321L43.7457 15.5125L44.5397 12.5741L42.2088 10.6744L45.1863 10.5388L46.2324 7.68426ZM33.8987 9.07894L34.9575 11.9355L37.9707 12.0711L35.6118 13.9722L36.4154 16.9126L33.8987 15.2309L31.3821 16.9126L32.1857 13.9722L29.8267 12.0711L32.84 11.9355L33.8987 9.07894ZM5.04174 71.386C4.659 71.4133 4.28157 71.5261 3.91407 71.7206C3.54662 71.9151 3.29982 72.164 3.17745 72.4673L6.40034e-05 87.5198H3.2332L6.63888 71.386H5.04174ZM14.2631 71.386C13.8804 71.4133 13.5029 71.5261 13.1354 71.7206C12.7679 71.9151 12.5211 72.164 12.3988 72.4673L9.22142 87.5198H12.4546L14.4899 77.8777L17.5529 87.5198H18.8975H20.2382L27.415 77.8582L25.3756 87.5198H28.6087L32.0143 71.386H28.7812L19.7172 83.6925L15.8602 71.386H14.2631ZM39.6386 71.386C39.2559 71.4133 38.8784 71.5261 38.5109 71.7206C38.1434 71.9151 37.8966 72.164 37.7743 72.4673L35.9893 80.9231L34.5969 87.5198H37.83L39.2225 80.9231H44.15C45.0243 80.9231 45.8661 80.7092 46.6762 80.2775C47.4893 79.8497 48.1859 79.274 48.7661 78.5505C49.3454 77.831 49.7322 77.0297 49.9186 76.1468C50.1025 75.2756 50.054 74.4743 49.7784 73.7548C49.5036 73.0313 49.0501 72.4557 48.4176 72.0278C47.789 71.5999 47.0375 71.386 46.1632 71.386H41.2357H39.6385H39.6386ZM40.5526 74.6221H45.4801C45.8998 74.6221 46.226 74.7699 46.462 75.0694C46.6981 75.3689 46.7733 75.7306 46.6854 76.1468C46.5959 76.5708 46.3672 76.9364 46.0048 77.2358C45.6423 77.5353 45.2528 77.6871 44.8331 77.6871H41.5416C41.1589 77.7143 40.7816 77.8271 40.4141 78.0216C40.0466 78.2161 39.7998 78.465 39.6774 78.7684L39.9057 77.6871L40.5526 74.6222L40.5526 74.6221ZM64.9713 71.386C63.8638 71.386 62.7749 71.5922 61.707 72.0122C60.6399 72.4284 59.6587 73.0079 58.7683 73.747C57.8731 74.4899 57.1165 75.3494 56.4946 76.3257C55.8689 77.302 55.4429 78.3444 55.2088 79.4529C54.9732 80.5692 54.9583 81.6155 55.1719 82.5917C55.3816 83.568 55.7761 84.4236 56.3585 85.1627C56.9378 85.8977 57.6751 86.4735 58.5657 86.8936C59.4571 87.3098 60.458 87.5197 61.5657 87.5197C62.6809 87.5197 63.7706 87.3097 64.8338 86.8936C65.8979 86.4735 66.8743 85.8978 67.7679 85.1627C68.6583 84.4237 69.4141 83.568 70.0398 82.5917C70.6617 81.6155 71.0924 80.5692 71.3281 79.4529C71.5621 78.3444 71.5723 77.302 71.3625 76.3257C71.1489 75.3494 70.7553 74.4899 70.1776 73.747C69.5952 73.008 68.8627 72.4284 67.9752 72.0122C67.0885 71.5921 66.0867 71.386 64.9713 71.386ZM64.2743 74.6883C65.1525 74.6883 65.9079 74.9022 66.5395 75.3339C67.1681 75.7617 67.6217 76.3373 67.9004 77.0608C68.1759 77.7804 68.2214 78.5777 68.0367 79.4529C67.8511 80.3319 67.4682 81.1332 66.8881 81.8566C66.3047 82.5762 65.6082 83.1518 64.7981 83.5836C63.9851 84.0115 63.1393 84.2253 62.2611 84.2253C61.3868 84.2253 60.6352 84.0114 59.9989 83.5836C59.3634 83.1518 58.9097 82.5762 58.6342 81.8566C58.3555 81.1332 58.3109 80.3319 58.4964 79.4529C58.6812 78.5777 59.0633 77.7804 59.6465 77.0608C60.2266 76.3374 60.9233 75.7617 61.7403 75.3339C62.5581 74.9021 63.3999 74.6883 64.2743 74.6883ZM80.6551 71.386C80.2724 71.4133 79.895 71.5261 79.5275 71.7206C79.16 71.9151 78.9132 72.164 78.7908 72.4673L77.0059 80.9231L75.6134 87.5198H78.8465L80.239 80.9231H82.3647L84.7999 87.5198H88.5344L86.062 80.8415C86.8362 80.6898 87.5632 80.3942 88.2349 79.9547C88.9075 79.5113 89.4857 78.9629 89.9673 78.3016C90.4489 77.6405 90.7717 76.9209 90.9351 76.1469C91.119 75.2756 91.0705 74.4744 90.7949 73.7548C90.5202 73.0314 90.0666 72.4557 89.4341 72.0279C88.8055 71.6 88.0541 71.3861 87.1797 71.3861H82.2522H80.6551L80.6551 71.386ZM81.5692 74.6221H86.4966C86.9163 74.6221 87.2426 74.7699 87.4785 75.0694C87.7146 75.3689 87.7899 75.7306 87.702 76.1468C87.6124 76.5708 87.3837 76.9364 87.0213 77.2358C86.6589 77.5353 86.2693 77.6871 85.8497 77.6871H82.5582C82.1755 77.7143 81.7981 77.8271 81.4306 78.0216C81.0631 78.2161 80.8164 78.465 80.694 78.7684L80.9222 77.6871L81.5692 74.6222L81.5692 74.6221ZM101.729 71.386H99.5643C99.1816 71.4133 98.8041 71.5261 98.4366 71.7206C98.0691 71.9151 97.8223 72.164 97.7 72.4673L97.2451 74.6221H101.046L98.3231 87.5197H101.556L104.279 74.6221H108.072L108.755 71.386H104.962H101.729ZM116.93 76.3413C116.889 76.6991 116.962 76.983 117.133 77.2009C117.309 77.4187 117.504 77.5782 117.718 77.6871C117.937 77.7921 118.086 77.8621 118.173 77.8893C118.203 77.8971 118.217 77.901 118.217 77.901C118.781 78.0683 119.322 78.2822 119.838 78.5467C120.358 78.8073 120.806 79.1301 121.189 79.5073C121.571 79.8886 121.845 80.3397 122.014 80.8648C122.179 81.3899 122.192 81.9927 122.047 82.6773C121.86 83.5641 121.467 84.3771 120.877 85.1083C120.287 85.8434 119.581 86.4268 118.754 86.8664C117.931 87.302 117.073 87.5198 116.187 87.5198H116.175C115.285 87.5198 114.523 87.302 113.881 86.8664C113.243 86.4268 112.779 85.8435 112.499 85.1083C112.218 84.3771 112.172 83.5641 112.359 82.6773H115.593C115.504 83.1324 115.582 83.5175 115.828 83.8286C116.073 84.1398 116.413 84.2954 116.856 84.2954H116.868C117.307 84.2954 117.721 84.1359 118.107 83.817C118.493 83.498 118.733 83.1169 118.826 82.6773C118.888 82.3817 118.862 82.1172 118.751 81.8917C118.64 81.6622 118.472 81.4638 118.244 81.2926C118.019 81.1215 117.757 80.9659 117.456 80.8259C117.155 80.6859 116.842 80.5497 116.512 80.4214C116.11 80.2619 115.734 80.0907 115.373 79.9079C115.011 79.7251 114.717 79.5151 114.487 79.2817C114.408 79.2118 114.325 79.1106 114.233 78.9745C113.987 78.6322 113.811 78.2666 113.711 77.8776C113.628 77.5509 113.6 77.2047 113.624 76.8313C113.643 76.633 113.678 76.4307 113.721 76.2284C113.909 75.3377 114.297 74.5287 114.887 73.7936C115.477 73.0623 116.188 72.475 117.01 72.0394C117.837 71.6037 118.691 71.386 119.581 71.386H119.593C120.479 71.386 121.245 71.6038 121.883 72.0394C122.526 72.475 122.985 73.0623 123.266 73.7936C123.546 74.5287 123.596 75.3377 123.409 76.2284H120.187C120.281 75.785 120.201 75.4077 119.953 75.0927C119.704 74.7776 119.356 74.622 118.91 74.622H118.898C118.455 74.622 118.045 74.7776 117.664 75.0927C117.283 75.4077 117.047 75.785 116.954 76.2284C116.946 76.2634 116.938 76.3023 116.93 76.3412L116.93 76.3413ZM35.437 90.6014L35.8852 96.9999H34.5567L34.4618 95.6131H32.7326L32.0878 96.9999H30.7608L33.5473 91.0302C33.5912 90.9099 33.6785 90.8112 33.8064 90.734C33.9342 90.6569 34.074 90.6121 34.2226 90.6014H35.0672H35.437H35.437ZM97.8195 91.7558H107.945L107.663 92.5036H97.8195V91.7558ZM97.8195 93.4204H107.122L106.841 94.1681H97.8194V93.4204H97.8195ZM97.8195 95.1203H106.281L106 95.868H97.8195V95.1203ZM29.8865 91.7559H19.7614L20.0427 92.5037H29.8865V91.7559ZM29.8865 93.4204H20.5841L20.8654 94.1682H29.8866V93.4204H29.8865ZM29.8865 95.1204H21.4245L21.7059 95.8681H29.8865V95.1204ZM65.7583 90.6015C65.6066 90.6123 65.4569 90.657 65.3113 90.7341C65.1657 90.8113 65.068 90.91 65.0197 91.0303L64.3176 94.3838L63.7698 97H65.0521L65.5999 94.3838H67.554C67.9008 94.3838 68.2344 94.299 68.5554 94.1278C68.8776 93.9581 69.1535 93.7297 69.3831 93.4429C69.6124 93.1575 69.7652 92.8397 69.8385 92.4896C69.9109 92.144 69.8911 91.8264 69.7813 91.541C69.6719 91.254 69.4916 91.0257 69.2404 90.8561C68.9908 90.6864 68.6926 90.6016 68.3459 90.6016H66.3917H65.7583V90.6015ZM66.1231 91.8849H68.0772C68.2437 91.8849 68.3733 91.9435 68.467 92.0623C68.5608 92.1811 68.5909 92.3245 68.5564 92.4896C68.5212 92.6577 68.4307 92.8028 68.2871 92.9215C68.1436 93.0403 67.9892 93.1005 67.8228 93.1005H66.5174C66.3656 93.1113 66.216 93.156 66.0703 93.2331C65.9248 93.3103 65.827 93.409 65.7788 93.5294L65.8686 93.1005L66.123 91.885L66.1231 91.8849ZM74.9421 90.6015L75.3193 97H73.9908L73.9113 95.6132H72.182L71.5218 97H70.1949L73.0476 91.0303C73.0928 90.91 73.1813 90.8113 73.31 90.7341C73.4387 90.657 73.579 90.6123 73.7277 90.6015H74.5722H74.9421H74.9421ZM72.7945 94.3299L72.5952 94.7587C72.642 94.6384 72.7305 94.5396 72.8591 94.4625C72.9878 94.3853 73.1282 94.3406 73.2815 94.3299H73.8363L73.7273 92.377L72.7946 94.3299H72.7945ZM79.6025 90.6015C79.4507 90.6123 79.301 90.657 79.1555 90.7341C79.0098 90.8113 78.9121 90.91 78.8638 91.0303L78.1617 94.3838L77.6139 97H78.8962L79.4439 94.3838H80.2869L81.2572 97H82.7383L81.7532 94.3515C82.0602 94.2912 82.3483 94.1741 82.6144 93.9997C82.8808 93.8238 83.1098 93.6063 83.3003 93.3442C83.4908 93.0819 83.6184 92.7965 83.6826 92.4896C83.7549 92.144 83.7352 91.8264 83.6254 91.541C83.516 91.254 83.3357 91.0257 83.0845 90.8561C82.8349 90.6864 82.5367 90.6016 82.19 90.6016H80.2358H79.6025V90.6015ZM79.9672 91.8849H81.9214C82.0878 91.8849 82.2173 91.9435 82.3111 92.0623C82.4049 92.1811 82.435 92.3245 82.4004 92.4896C82.3652 92.6577 82.2747 92.8028 82.1312 92.9215C81.9877 93.0403 81.8333 93.1005 81.6668 93.1005H80.3615C80.2097 93.1113 80.0601 93.156 79.9145 93.2331C79.7689 93.3103 79.6711 93.409 79.6228 93.5294L79.7126 93.1005L79.9671 91.885L79.9672 91.8849ZM87.8799 90.6015H87.0215C86.8697 90.6123 86.7201 90.657 86.5745 90.7341C86.4289 90.8113 86.3311 90.91 86.2828 91.0303L86.1039 91.8849H87.6112L86.5402 97H87.8225L88.8935 91.8849H90.3976L90.6664 90.6015H89.1621H87.8799ZM93.8318 92.5666C93.816 92.7086 93.8448 92.8212 93.913 92.9076C93.9828 92.994 94.0605 93.0572 94.1455 93.1004C94.2323 93.142 94.2912 93.1698 94.3259 93.1806C94.3376 93.1837 94.3435 93.1852 94.3435 93.1852C94.5669 93.2516 94.7819 93.3365 94.9865 93.4413C95.1929 93.5447 95.3711 93.6727 95.5231 93.8224C95.6749 93.9736 95.7839 94.1525 95.8512 94.3607C95.917 94.569 95.9225 94.8081 95.8657 95.0796C95.792 95.4313 95.6366 95.7536 95.4033 96.0436C95.1696 96.3352 94.8899 96.5666 94.5622 96.7409C94.2363 96.9136 93.8962 97 93.5448 97H93.5402C93.1873 97 92.8848 96.9136 92.6297 96.7409C92.3764 96.5666 92.1921 96.3351 92.0806 96.0436C91.9686 95.7536 91.9498 95.4313 92.0235 95.0796H93.3058C93.271 95.26 93.3023 95.4128 93.3997 95.5362C93.4972 95.6596 93.6322 95.7213 93.8079 95.7213H93.8126C93.9867 95.7213 94.151 95.658 94.3039 95.5316C94.4567 95.4051 94.5516 95.2539 94.588 95.0796C94.6126 94.9623 94.6022 94.8574 94.5578 94.7679C94.5136 94.6769 94.4468 94.5983 94.3563 94.5304C94.2672 94.4625 94.163 94.4008 94.0436 94.3452C93.9243 94.2898 93.7999 94.2358 93.6688 94.1848C93.5094 94.1215 93.3603 94.0537 93.2167 93.9812C93.0731 93.9087 92.9564 93.8254 92.8649 93.7328C92.8337 93.7051 92.8005 93.665 92.764 93.611C92.666 93.4752 92.5962 93.3302 92.5561 93.1759C92.5231 93.0463 92.5118 92.9091 92.5212 92.761C92.5284 92.6823 92.5421 92.6021 92.5589 92.5219C92.6329 92.1686 92.7863 91.8478 93.0201 91.5563C93.2534 91.2662 93.5349 91.0333 93.8608 90.8606C94.1882 90.6878 94.5269 90.6014 94.8798 90.6014H94.8844C95.2358 90.6014 95.5398 90.6878 95.7934 90.8606C96.0484 91.0333 96.2309 91.2663 96.3428 91.5563C96.4543 91.8478 96.475 92.1686 96.4011 92.5219H95.1234C95.1602 92.346 95.1284 92.1964 95.0297 92.0714C94.931 91.9465 94.7929 91.8848 94.6157 91.8848H94.611C94.4353 91.8848 94.2729 91.9465 94.1219 92.0714C93.9709 92.1964 93.878 92.346 93.8411 92.5219C93.8382 92.5358 93.835 92.5512 93.8318 92.5666L93.8318 92.5666ZM33.3307 94.3299L33.1362 94.7587C33.1817 94.6384 33.269 94.5396 33.3969 94.4625C33.5246 94.3853 33.6646 94.3406 33.8177 94.3299H34.3726L34.2419 92.377L33.3307 94.3299H33.3307ZM39.5239 90.6015C39.3723 90.6123 39.2232 90.657 39.0784 90.7341C38.9337 90.8113 38.837 90.91 38.79 91.0303L38.1145 94.4378C38.0212 94.9083 38.0517 95.3371 38.2059 95.7258C38.3599 96.1146 38.6086 96.4231 38.9495 96.6544C39.2907 96.8843 39.6977 97 40.1709 97C40.6395 97 41.0908 96.8843 41.5232 96.6544C41.956 96.4231 42.3269 96.1145 42.6351 95.7258C42.9434 95.3371 43.1455 94.9083 43.2389 94.4378L43.9994 90.6015H43.3722C43.2159 90.6123 43.0653 90.657 42.9205 90.7341C42.7757 90.8113 42.6791 90.91 42.6322 91.0303L42.4628 91.8849L42.4306 92.0469L41.9565 94.4378C41.91 94.6723 41.809 94.8868 41.6548 95.081C41.5007 95.2754 41.3141 95.4312 41.097 95.5469C40.8799 95.6626 40.6556 95.7212 40.4244 95.7212C40.1886 95.7212 39.9859 95.6626 39.8148 95.5469C39.6435 95.4312 39.5203 95.2754 39.4417 95.081C39.3647 94.8867 39.3501 94.6722 39.3967 94.4378L39.8707 92.0469L39.9029 91.8849L40.1573 90.6015H39.5239ZM47.8291 90.6015H46.9706C46.819 90.6123 46.6699 90.657 46.5252 90.7341C46.3804 90.8113 46.2838 90.91 46.2368 91.0303L46.0673 91.8849H47.5746L46.5604 97H47.8427L48.8568 91.8849H50.361L50.6155 90.6015H49.1113H47.8291ZM55.4423 90.6015C55.003 90.6015 54.5723 90.6832 54.1509 90.8499C53.7297 91.0149 53.3436 91.2447 52.9942 91.5378C52.6429 91.8324 52.3473 92.1733 52.1056 92.5605C51.8624 92.9477 51.6987 93.3611 51.6116 93.8007C51.5238 94.2434 51.5232 94.6584 51.6129 95.0456C51.701 95.4327 51.8618 95.7721 52.0965 96.0651C52.3301 96.3567 52.6254 96.585 52.9807 96.7516C53.3364 96.9167 53.7343 96.9999 54.1736 96.9999C54.616 96.9999 55.047 96.9167 55.4666 96.7516C55.8865 96.5849 56.2707 96.3566 56.6214 96.0651C56.9709 95.7721 57.2661 95.4327 57.5094 95.0456C57.7511 94.6584 57.9166 94.2434 58.0043 93.8007C58.0915 93.3611 58.0902 92.9477 58.0021 92.5605C57.9124 92.1733 57.752 91.8324 57.519 91.5378C57.2843 91.2447 56.9908 91.0148 56.6368 90.8499C56.2829 90.6832 55.8846 90.6015 55.4423 90.6015ZM55.1826 91.9111C55.5309 91.9111 55.8315 91.996 56.0842 92.1672C56.3357 92.3369 56.5185 92.5652 56.6327 92.852C56.7457 93.1374 56.7678 93.4536 56.699 93.8007C56.6298 94.1493 56.4821 94.467 56.2557 94.7539C56.028 95.0394 55.7546 95.2677 55.4356 95.4388C55.1153 95.6085 54.781 95.6934 54.4327 95.6934C54.0859 95.6934 53.7869 95.6085 53.5323 95.4388C53.278 95.2677 53.0952 95.0393 52.9822 94.7539C52.868 94.467 52.8463 94.1493 52.9154 93.8007C52.9842 93.4536 53.1317 93.1374 53.3593 92.852C53.5858 92.5651 53.8591 92.3368 54.1809 92.1672C54.5031 91.996 54.8358 91.9111 55.1826 91.9111ZM65.6076 42.2793C65.4073 42.2385 65.1863 42.0274 65.1662 41.8189C65.1494 41.4826 65.496 41.3566 65.7766 41.3672C66.056 41.3849 66.5098 41.5439 66.7568 41.6776C66.9426 41.7781 66.9621 42.0091 66.7742 42.12C66.5725 42.2274 65.8347 42.3204 65.6075 42.2793H65.6076ZM50.0957 47.3208C48.8709 47.3208 47.878 46.3269 47.878 45.101C47.878 43.875 48.8709 42.8812 50.0957 42.8812C51.3206 42.8812 52.3135 43.875 52.3135 45.101C52.3135 46.3269 51.3206 47.3208 50.0957 47.3208ZM69.1791 47.3208C67.9543 47.3208 66.9613 46.3269 66.9613 45.101C66.9613 43.875 67.9543 42.8812 69.1791 42.8812C70.404 42.8812 71.3969 43.875 71.3969 45.101C71.3969 46.3269 70.404 47.3208 69.1791 47.3208ZM48.6422 45.0365H49.6309V45.1655H48.6422C48.6571 45.5078 48.7912 45.8315 49.0223 46.0841L49.7215 45.3843L49.7671 45.4299L49.8126 45.4755L49.1135 46.1753C49.3659 46.4067 49.6893 46.5409 50.0313 46.5559V45.5662H50.1601V46.5559C50.5022 46.5409 50.8256 46.4067 51.078 46.1753L50.3789 45.4755L50.4244 45.4299L50.47 45.3843L51.1691 46.0841C51.4003 45.8315 51.5343 45.5078 51.5493 45.1655H50.5605V45.0365H51.5493C51.5344 44.6941 51.4003 44.3705 51.1691 44.1178L50.47 44.8176L50.4244 44.772L50.3789 44.7264L51.078 44.0266C50.8255 43.7952 50.5022 43.661 50.1601 43.6461V44.6358H50.0313V43.6461C49.6892 43.661 49.3659 43.7952 49.1135 44.0266L49.8126 44.7264L49.7671 44.772L49.7215 44.8176L49.0223 44.1178C48.7912 44.3705 48.6571 44.6942 48.6422 45.0365ZM50.1655 45.3615C50.2114 45.3492 50.2591 45.3768 50.2714 45.4228C50.2837 45.4687 50.2561 45.5163 50.2102 45.5287C50.1643 45.5409 50.1167 45.5134 50.1044 45.4675C50.0921 45.4216 50.1196 45.3739 50.1655 45.3615ZM50.0259 45.3615C50.0719 45.3739 50.0994 45.4216 50.087 45.4675C50.0747 45.5134 50.0271 45.5409 49.9812 45.5287C49.9353 45.5163 49.9078 45.4687 49.9201 45.4228C49.9324 45.3768 49.9801 45.3492 50.0259 45.3615ZM49.8466 45.204C49.8647 45.2479 49.8436 45.2987 49.7997 45.3169C49.7558 45.3351 49.705 45.314 49.6868 45.27C49.6687 45.2262 49.6898 45.1752 49.7337 45.157C49.7776 45.1389 49.8285 45.16 49.8466 45.204ZM50.1655 44.8404C50.1196 44.8281 50.0921 44.7804 50.1044 44.7344C50.1167 44.6885 50.1643 44.661 50.2102 44.6732C50.2561 44.6856 50.2837 44.7333 50.2714 44.7792C50.2591 44.8251 50.2114 44.8527 50.1655 44.8404ZM50.3448 44.998C50.3267 44.954 50.3478 44.9032 50.3918 44.885C50.4357 44.8669 50.4865 44.8879 50.5046 44.9319C50.5228 44.9759 50.5016 45.0267 50.4577 45.0449C50.4138 45.0631 50.363 45.0419 50.3448 44.998ZM50.0259 44.8404C49.9801 44.8527 49.9324 44.8251 49.9201 44.7792C49.9078 44.7333 49.9353 44.6856 49.9812 44.6732C50.0271 44.661 50.0747 44.6885 50.087 44.7344C50.0994 44.7804 50.0719 44.8281 50.0259 44.8404ZM49.8466 44.998C49.8285 45.0419 49.7776 45.0631 49.7337 45.0449C49.6898 45.0267 49.6687 44.9759 49.6868 44.9319C49.705 44.8879 49.7558 44.8669 49.7997 44.885C49.8436 44.9032 49.8647 44.954 49.8466 44.998ZM50.0957 45.2303C50.0244 45.2303 49.9665 45.1724 49.9665 45.101C49.9665 45.0295 50.0244 44.9716 50.0957 44.9716C50.167 44.9716 50.2249 45.0295 50.2249 45.101C50.2249 45.1724 50.167 45.2303 50.0957 45.2303ZM50.3448 45.204C50.363 45.16 50.4138 45.1389 50.4577 45.157C50.5016 45.1752 50.5228 45.2262 50.5046 45.27C50.4865 45.314 50.4357 45.3351 50.3918 45.3169C50.3478 45.2987 50.3267 45.2479 50.3448 45.204ZM67.7257 45.0365H68.7144V45.1655H67.7257C67.7406 45.5078 67.8747 45.8315 68.1059 46.0841L68.805 45.3843L68.8505 45.4299L68.896 45.4755L68.1969 46.1753C68.4494 46.4067 68.7728 46.5409 69.1148 46.5559V45.5662H69.2436V46.5559C69.5857 46.5409 69.9091 46.4067 70.1615 46.1753L69.4623 45.4755L69.5078 45.4299L69.5535 45.3843L70.2526 46.0841C70.4838 45.8315 70.6179 45.5078 70.6328 45.1655H69.644V45.0365H70.6328C70.6179 44.6941 70.4838 44.3705 70.2526 44.1178L69.5535 44.8176L69.5078 44.772L69.4623 44.7264L70.1615 44.0266C69.909 43.7952 69.5857 43.661 69.2436 43.6461V44.6358H69.1148V43.6461C68.7728 43.661 68.4494 43.7952 68.1969 44.0266L68.896 44.7264L68.8505 44.772L68.805 44.8176L68.1059 44.1178C67.8747 44.3705 67.7406 44.6942 67.7257 45.0365ZM69.249 45.3615C69.2949 45.3492 69.3425 45.3768 69.3548 45.4228C69.3672 45.4687 69.3396 45.5163 69.2938 45.5287C69.2479 45.5409 69.2002 45.5134 69.1879 45.4675C69.1756 45.4216 69.2031 45.3739 69.249 45.3615ZM69.1094 45.3615C69.1553 45.3739 69.1828 45.4216 69.1705 45.4675C69.1582 45.5134 69.1106 45.5409 69.0647 45.5287C69.0188 45.5163 68.9913 45.4687 69.0036 45.4228C69.0159 45.3768 69.0635 45.3492 69.1094 45.3615ZM68.9301 45.204C68.9482 45.2479 68.9271 45.2987 68.8832 45.3169C68.8393 45.3351 68.7885 45.314 68.7703 45.27C68.7522 45.2261 68.7733 45.1752 68.8172 45.157C68.8611 45.1389 68.9119 45.16 68.9301 45.204ZM69.249 44.8404C69.2031 44.8281 69.1756 44.7804 69.1879 44.7344C69.2002 44.6886 69.2479 44.661 69.2938 44.6732C69.3396 44.6856 69.3672 44.7333 69.3548 44.7792C69.3425 44.8251 69.2949 44.8527 69.249 44.8404ZM69.4284 44.998C69.4102 44.954 69.4313 44.9032 69.4752 44.885C69.5191 44.8669 69.5699 44.8879 69.5881 44.9319C69.6062 44.9758 69.5851 45.0267 69.5412 45.0449C69.4973 45.0631 69.4465 45.0419 69.4284 44.998ZM69.1094 44.8404C69.0635 44.8527 69.0159 44.8251 69.0036 44.7792C68.9913 44.7333 69.0188 44.6856 69.0647 44.6732C69.1106 44.661 69.1582 44.6885 69.1705 44.7344C69.1828 44.7804 69.1553 44.8281 69.1094 44.8404ZM68.9301 44.998C68.9119 45.0419 68.8611 45.0631 68.8172 45.0449C68.7733 45.0267 68.7522 44.9759 68.7703 44.9319C68.7885 44.8879 68.8393 44.8669 68.8832 44.885C68.9271 44.9032 68.9482 44.954 68.9301 44.998ZM69.1792 45.2303C69.1079 45.2303 69.05 45.1724 69.05 45.101C69.05 45.0295 69.1079 44.9716 69.1792 44.9716C69.2506 44.9716 69.3084 45.0295 69.3084 45.101C69.3084 45.1724 69.2506 45.2303 69.1792 45.2303ZM69.4284 45.204C69.4465 45.16 69.4973 45.1389 69.5412 45.157C69.5851 45.1752 69.6062 45.2261 69.5881 45.27C69.5699 45.314 69.5191 45.3351 69.4752 45.3169C69.4313 45.2987 69.4102 45.2479 69.4284 45.204ZM44.6669 44.5347H47.5677L47.5644 44.549C47.517 44.7595 47.4934 44.9746 47.4934 45.1902C47.4934 45.5736 47.5678 45.9529 47.7162 46.3065L47.7232 46.3231L47.5468 46.3208L45.493 45.556L44.667 44.5347H44.6669ZM72.0167 45.5551H75.6396C75.7783 45.4491 75.9169 45.3433 76.0555 45.2374C76.1414 45.2302 76.1116 45.3791 76.0521 45.4182C75.0345 46.0878 72.8995 46.3445 71.7268 46.3329C71.8521 46.1087 71.9519 45.8334 72.0168 45.5551H72.0167ZM55.8724 42.3527L56.0642 42.8369L66.1139 43.6465L55.8724 42.3527ZM53.9619 45.8042L54.2538 45.2708L66.2049 45.9057L53.9619 45.8041V45.8042ZM57.8326 45.077L56.821 44.6326C56.7426 44.5981 56.6847 44.5467 56.6412 44.4727L55.3913 42.3491C55.3605 42.2968 55.3531 42.2405 55.3694 42.182C55.3857 42.1235 55.4209 42.0788 55.4745 42.0504L56.2211 41.6554C56.2297 41.6508 56.2335 41.6408 56.2303 41.6317C56.2271 41.6225 56.2179 41.6169 56.2084 41.6189L54.8252 41.9036C54.7264 41.9239 54.6489 41.9828 54.6087 42.0753C54.5685 42.1679 54.5764 42.266 54.6309 42.351L56.0433 44.5525C56.1296 44.6871 56.2538 44.7681 56.4099 44.8025L57.8208 45.114C57.8305 45.1162 57.8402 45.1103 57.8432 45.1008C57.8463 45.0913 57.8416 45.081 57.8326 45.077ZM52.5422 42.4176L53.9683 44.4017C54.106 44.5933 54.1178 44.8326 54.0014 45.0378L53.4517 46.0062C53.4468 46.015 53.4358 46.0185 53.4266 46.0142C53.4174 46.01 53.4128 45.9994 53.4164 45.9899L53.8062 44.9467C53.8566 44.8118 53.843 44.6743 53.7693 44.5506L52.5094 42.4389C52.5041 42.4299 52.5069 42.4182 52.5158 42.4125C52.5245 42.4069 52.5361 42.4091 52.5422 42.4175V42.4176ZM73.9282 44.2558C74.0456 44.2682 74.8351 44.3406 74.8777 44.268C74.9027 44.2253 74.6997 44.0722 74.6675 44.0449C74.4027 43.8204 74.1364 43.6428 73.836 43.4704C73.2803 43.164 72.6094 42.9116 71.98 42.8231C71.7829 42.7954 71.8805 42.8442 71.9793 42.923C72.4651 43.3107 72.8934 43.691 73.4243 44.026C73.5591 44.1098 73.7698 44.2339 73.9283 44.2558H73.9282ZM55.9176 40.9608L56.8219 39.9724L57.8689 39.9009L58.3448 41.4134L55.9176 40.9608ZM58.2735 39.9129L58.7613 41.4789L63.9146 42.3628C64.0613 42.388 64.1883 42.3988 64.3372 42.3988H65.6996L65.7747 42.5565L66.5698 42.4138L66.8923 42.1435L67.6949 41.8657C65.7519 41.0934 63.6294 40.4474 61.5152 39.9464C61.2415 39.8815 61.0009 39.8559 60.7197 39.8618L58.2735 39.9129H58.2735ZM45.025 41.2796L45.3892 41.9768C45.4654 42.1225 45.6063 42.2079 45.7706 42.2079H46.6375C46.7033 42.2079 46.7414 42.1567 46.7716 42.0982C46.9436 41.7647 45.8869 41.137 45.056 41.2219C45.0425 41.2234 45.0317 41.2307 45.0253 41.2425C45.0188 41.2544 45.0187 41.2676 45.025 41.2796ZM49.1192 18.3371C47.9565 18.4211 46.8657 18.769 45.8589 19.3688C44.8521 19.9687 44.2528 20.7365 44.0729 21.6722V47.7536V68.1004H54.0454V48.1728H60.6019L72.4083 68.1004H83.9269L71.9528 47.5016C74.2421 47.0337 76.2917 46.122 78.0777 44.7663C79.8637 43.3986 81.2899 41.7071 82.3448 39.6676C83.3995 37.6281 83.9269 35.4087 83.9269 33.0212C83.9269 30.3339 83.2557 27.8625 81.9372 25.6431C80.6187 23.4117 78.8448 21.6361 76.6154 20.3164C74.398 18.9968 71.9408 18.3369 69.2439 18.3369H54.0454H49.1192V18.3371ZM54.0454 28.3186H69.2439C70.5384 28.3186 71.6411 28.7745 72.564 29.6982C73.4869 30.6219 73.9544 31.7377 73.9544 33.0214C73.9544 34.329 73.4869 35.4568 72.564 36.3805C71.6411 37.3042 70.5384 37.7722 69.2439 37.7722H59.0916C57.9289 37.8561 56.8382 38.2041 55.8313 38.8039C55.4062 39.0571 55.0538 39.3403 54.7749 39.6535L56.3279 39.4569C59.0768 39.0771 63.1764 39.2733 68.6911 41.7772C72.9681 42.018 75.9724 44.6325 75.9724 44.6325L75.3807 45.2968H71.8701L71.8237 45.3064C71.8289 45.2379 71.8316 45.1686 71.8316 45.0988C71.8316 43.6133 70.6285 42.4092 69.1444 42.4092C67.6604 42.4092 66.4573 43.6133 66.4573 45.0988C66.4573 45.5515 66.5692 45.9779 66.7666 46.3522L52.4818 46.3729L52.4516 46.3725C52.6121 46.014 52.702 45.6132 52.702 45.1902C52.702 43.6637 51.5333 42.4263 50.0917 42.4263C49.0574 42.4263 48.1637 43.0633 47.7412 43.987H44.9715H44.8412C44.5911 43.987 44.3864 43.7822 44.3864 43.5318V43.5317C44.3864 43.2814 44.5911 43.0765 44.8412 43.0765H45.1518L45.1602 42.3078L44.5876 40.9938L50.7525 40.1625L54.0454 39.7458V37.7721V28.3185L54.0454 28.3186ZM93.1923 18.3371C92.0296 18.4211 90.9389 18.769 89.932 19.3688C88.9252 19.9687 88.3259 20.7365 88.146 21.6722V38.396V48.3774V68.1005H113.173C115.894 68.1005 118.375 67.4287 120.617 66.097C122.87 64.7653 124.656 62.9658 125.998 60.7224C127.329 58.4669 128 55.9836 128 53.2722C128 50.5969 127.341 48.1495 126.046 45.9181C124.752 43.6987 123.026 41.9111 120.868 40.5794C122.115 38.372 122.726 35.9726 122.726 33.3692C122.726 30.6099 122.055 28.0905 120.688 25.8232C119.334 23.5438 117.524 21.7321 115.247 20.3645C112.981 19.0089 110.464 18.3371 107.695 18.3371H93.1923ZM107.695 48.3774H113.173C114.492 48.3774 115.618 48.8574 116.589 49.8291C117.548 50.7888 118.028 51.9286 118.028 53.2722C118.028 54.6039 117.548 55.7556 116.589 56.7153C115.618 57.6751 114.492 58.155 113.173 58.155H103.165C102.002 58.2509 100.911 58.5869 99.9044 59.1747C98.8976 59.7626 98.2982 60.5304 98.1185 61.4901V58.155V48.3774H107.695H107.695ZM98.1185 28.3186H107.695C109.086 28.3186 110.272 28.8105 111.267 29.8062C112.262 30.802 112.754 31.9896 112.754 33.3693C112.754 34.737 112.262 35.9126 111.267 36.9084C110.272 37.9042 109.086 38.396 107.695 38.396H103.165C102.002 38.492 100.911 38.84 99.9045 39.4398C98.8977 40.0396 98.2983 40.8074 98.1185 41.7431V38.396V28.3186Z" fill="var(--fill-0, white)"/>
</svg>
