<svg preserveAspectRatio="none" width="100%" height="100%" overflow="visible" style="display: block;" viewBox="0 0 128 88" fill="none" xmlns="http://www.w3.org/2000/svg">
<path id="Vector" d="M59.28 68.0119C57.9934 68.0257 56.7518 67.5379 55.8174 66.6515C54.883 65.7652 54.3288 64.5496 54.272 63.2616C54.2613 63.0364 54.24 62.4305 53.7227 62.4305C53.5093 62.4305 53.328 62.5538 53.12 62.7468C52.5227 63.2991 51.7653 63.8513 50.6667 63.8513C50.1068 63.8394 49.5545 63.7193 49.04 63.4975C46.1867 62.3501 46.1493 60.3985 46.2613 59.6103C46.2933 59.4066 46.2987 59.1814 46.1547 59.0205L45.984 58.8597H45.8027C45.6587 58.8597 45.5093 58.924 45.3067 59.0688C44.6086 59.6011 43.7619 59.901 42.8853 59.9266C42.4229 59.922 41.9654 59.831 41.536 59.6586C37.76 58.2109 38.0693 54.683 38.2453 53.6214C38.2738 53.3998 38.2204 53.2354 38.0853 53.1281L37.8187 52.9137L37.568 53.1442C36.8444 53.8426 35.8791 54.2327 34.8747 54.2326C33.843 54.2355 32.8524 53.8277 32.1204 53.0989C31.3884 52.37 30.9749 51.3797 30.9707 50.3455C30.9707 48.2008 32.72 46.4744 34.8747 46.4744C36.816 46.4744 38.4747 47.922 38.72 49.8522L38.8587 50.8977L39.4453 50.013C39.4987 49.9165 41.0827 47.5467 43.9893 47.5467C44.5333 47.5467 45.1093 47.6325 45.6747 47.8148C47.9893 48.5118 48.384 50.6028 48.4427 51.4607C48.4853 51.9647 48.8427 51.9968 48.9227 51.9968C49.12 51.9968 49.264 51.8682 49.3653 51.7556C49.7395 51.3702 50.1875 51.0647 50.6824 50.8574C51.1773 50.6501 51.709 50.5453 52.2453 50.5492C52.9316 50.5492 53.6462 50.7101 54.3893 51.0317C58.0693 52.6027 56.4107 57.2405 56.384 57.2887C56.0747 58.0608 56.0587 58.3986 56.3573 58.597L56.5013 58.6667H56.608C56.768 58.6667 56.9813 58.5916 57.3227 58.479C57.8187 58.3074 58.576 58.0501 59.28 58.0501C60.6005 58.0556 61.8661 58.5814 62.8038 59.5141C63.7416 60.4468 64.2765 61.7117 64.2933 63.0364C64.2849 64.3626 63.7522 65.6314 62.8124 66.5642C61.8725 67.497 60.6021 68.0176 59.28 68.0119ZM98.224 45.6487C92.1547 40.3943 78.128 28.2771 74.3253 25.4355C72.16 23.8162 70.672 22.9584 69.376 22.5777C68.5884 22.3324 67.7688 22.2059 66.944 22.2024C65.9698 22.2024 64.9387 22.3722 63.8507 22.7118C61.3973 23.4892 58.9547 25.4194 56.5867 27.2906L56.464 27.3871C54.256 29.1242 51.984 30.9257 50.256 31.301C49.5034 31.4721 48.7344 31.5602 47.9627 31.5638C46.032 31.5638 44.2987 31.0062 43.6427 30.1805C43.536 30.0482 43.6071 29.8248 43.856 29.5103L43.8987 29.4674L49.232 23.7465C53.408 19.5967 57.3653 15.672 66.4587 15.4629H66.912C72.576 15.4629 78.2187 17.9775 78.8587 18.2723C83.929 20.7906 89.5021 22.1179 95.1573 22.1541C100.896 22.1541 106.827 20.744 113.045 17.8917C112.341 17.3049 111.621 16.7381 110.885 16.192C105.419 18.5512 100.203 19.7307 95.1733 19.7307C90.0427 19.7307 84.9067 18.5029 79.9307 16.0848C79.664 15.9669 73.424 13.0448 66.9173 13.0287C66.7431 13.0287 66.5724 13.0323 66.4053 13.0394C58.7573 13.2164 54.4587 15.9132 51.568 18.2723C48.752 18.342 46.3307 19.0122 44.1653 19.6127C42.24 20.1489 40.576 20.61 38.944 20.6046C38.2773 20.6046 37.0773 20.551 36.9707 20.5403C35.104 20.4867 25.6907 18.1973 18.208 15.3824C17.4507 15.9186 16.7129 16.4726 15.9947 17.0445C23.8133 20.224 33.328 22.6903 36.3253 22.8833C37.1627 22.9369 38.048 23.0281 38.944 23.0281C40.928 23.0281 42.912 22.4758 44.832 21.9397C45.968 21.6233 47.2107 21.2802 48.5227 21.0282L47.4773 22.0684L42.0533 27.8964C41.6267 28.3254 40.6987 29.4727 41.3067 30.8828C41.6237 31.5312 42.1198 32.0746 42.736 32.4484C44.032 33.317 46.3467 33.8961 48.496 33.9014C49.3138 33.9014 50.0782 33.8228 50.7893 33.6655C53.0667 33.1562 55.4507 31.2635 57.984 29.269C59.9947 27.682 62.8533 25.666 65.04 25.0762C65.684 24.9045 66.347 24.8144 67.0133 24.8081C67.1827 24.8038 67.3521 24.8128 67.52 24.8349C68.96 25.0172 70.3627 25.5051 72.8693 27.3656C77.3227 30.6898 97.0347 47.8201 97.2213 47.9864C97.232 47.9971 98.4907 49.0748 98.3947 50.8655C98.3573 51.8628 97.808 52.7528 96.8267 53.364C96.0605 53.8741 95.1647 54.1532 94.2453 54.1683C93.4372 54.1668 92.6459 53.9363 91.9627 53.5034C91.888 53.4498 85.136 47.3001 82.6507 45.2305C82.256 44.9088 81.872 44.6139 81.4773 44.6139C81.3793 44.612 81.2822 44.6328 81.1934 44.6746C81.1046 44.7164 81.0266 44.7782 80.9653 44.8552C80.576 45.3377 81.0187 45.9918 81.5253 46.4315L89.4187 54.313C89.4293 54.313 90.4 55.2245 90.5067 56.4309C90.5671 57.7427 89.9449 58.8257 88.64 59.68C87.8153 60.256 86.8394 60.575 85.8347 60.5968C85.0377 60.5938 84.2591 60.3571 83.5947 59.9159L82.4533 58.8114C80.5972 56.941 78.676 55.1366 76.6933 53.4016C76.3093 53.0906 75.904 52.8011 75.5147 52.8011C75.4218 52.7995 75.3296 52.8168 75.2434 52.8518C75.1573 52.8868 75.0791 52.9388 75.0133 53.0048C74.8373 53.2032 74.7147 53.5571 75.1627 54.1415C75.2839 54.3003 75.4177 54.4491 75.5627 54.5865L81.312 61.0097C81.3653 61.0633 82.496 62.4037 81.44 63.7495L81.2373 64.0068C81.0698 64.1887 80.8917 64.3606 80.704 64.5215C79.7227 65.3258 78.4107 65.4008 77.8933 65.4008C77.6306 65.4037 77.3681 65.3821 77.1093 65.3365C76.5404 65.24 76.1636 65.0809 75.9787 64.8593L75.9093 64.7896C75.5893 64.4679 72.6987 61.5244 70.288 59.5352C69.9733 59.2672 69.5787 58.9455 69.168 58.9455C69.0718 58.9452 68.9766 58.9651 68.8884 59.0039C68.8003 59.0427 68.7211 59.0995 68.656 59.1707C68.176 59.6854 68.8907 60.4574 69.1893 60.7416L74.096 66.1193C74.0573 66.2397 73.9977 66.3522 73.92 66.4517C73.744 66.6876 73.152 67.2828 71.3653 67.5026C71.1495 67.5297 70.9322 67.5422 70.7147 67.5401C68.8747 67.5401 66.9173 66.6608 65.904 66.1247C66.3612 65.1597 66.598 64.1047 66.5973 63.0364C66.5923 62.055 66.3906 61.0847 66.0041 60.1832C65.6177 59.2816 65.0545 58.4672 64.3479 57.7885C63.6414 57.1097 62.8059 56.5804 61.8913 56.232C60.9767 55.8837 60.0016 55.7234 59.024 55.7607C59.152 53.927 58.8907 50.4527 55.3067 48.93C54.3406 48.4994 53.2971 48.2713 52.24 48.2598C51.4578 48.2598 50.7111 48.3938 50 48.6619C49.2512 47.2204 47.9651 46.1336 46.4213 45.638C45.5743 45.341 44.684 45.187 43.7867 45.1822C42.2898 45.1822 40.9262 45.6147 39.696 46.4797C39.1137 45.7617 38.3796 45.1824 37.5467 44.7837C36.7138 44.385 35.8029 44.1768 34.88 44.1743C33.2441 44.1766 31.6742 44.8213 30.5067 45.9704C28.976 44.8069 22.9067 40.9841 6.68267 37.3221C5.44563 37.0098 4.21514 36.672 2.992 36.3088C2.80961 37.1839 2.67253 38.068 2.58133 38.9574L6.15467 39.7992C22.7307 43.4558 28.2133 47.2572 29.136 47.9756C28.8205 48.7257 28.6573 49.5314 28.656 50.3455C28.6602 51.2573 28.8645 52.1569 29.2543 52.9806C29.6441 53.8042 30.2099 54.5315 30.9115 55.1109C31.6131 55.6903 32.4332 56.1075 33.3135 56.3328C34.1939 56.5582 35.113 56.5862 36.0053 56.4148C36.5173 58.9187 38.1707 60.8167 40.6933 61.7925C41.3989 62.0696 42.149 62.215 42.9067 62.2214C43.3867 62.2214 43.8596 62.1606 44.3253 62.0391C44.784 63.2187 45.8293 64.6824 48.176 65.6207C48.9491 65.9427 49.7763 66.1138 50.6133 66.1247C51.264 66.1247 51.8951 66.0121 52.5067 65.7869C53.065 67.1248 54.0056 68.2669 55.2101 69.0694C56.4145 69.8718 57.8288 70.2986 59.2747 70.296C61.248 70.3067 63.1467 69.5078 64.528 68.0977C65.7067 68.7465 68.1973 69.926 70.7307 69.926C71.0507 69.9296 71.3618 69.9117 71.664 69.8724C74.1707 69.5561 75.3387 68.5856 75.872 67.8243C75.9684 67.692 76.054 67.5521 76.128 67.4061C76.7147 67.5777 77.376 67.7171 78.1173 67.7171C79.4773 67.7171 80.7893 67.256 82.1173 66.2962C83.4187 65.3633 84.3467 64.0229 84.4853 62.8809V62.8273C84.9298 62.9202 85.376 62.9667 85.824 62.9667C87.2373 62.9667 88.6347 62.527 89.9467 61.6692C92.5067 60.0071 92.944 57.8356 92.9013 56.4148C93.7958 56.6008 94.7184 56.6045 95.6143 56.4259C96.5103 56.2472 97.3614 55.8897 98.1173 55.3746C98.8742 54.9187 99.5119 54.2878 99.9776 53.5343C100.443 52.7809 100.723 51.9266 100.795 51.0425C100.887 49.8143 100.588 48.5884 99.9413 47.5413C104.229 45.7077 114 42.1637 125.515 39.5901C125.442 38.7051 125.323 37.8246 125.157 36.9522C115.925 38.9786 106.908 41.8871 98.2293 45.638L98.224 45.6487ZM125.547 41.5578C125.547 63.149 97.9947 80.66 64.016 80.66C30.0373 80.66 2.48 63.149 2.48 41.5578C2.48 19.9666 30.0267 2.45561 64.0213 2.45561C98 2.45561 125.547 19.9613 125.547 41.5578ZM128 41.5792C128 18.6745 99.3387 0 64 0C28.6613 0 0.0106667 18.6745 0.0106667 41.5846L0 44.0188C0 68.3229 25.04 88 63.9947 88C103.179 88 127.995 68.3229 127.995 44.0134L128 41.5792Z" fill="var(--fill-0, white)"/>
</svg>
