<svg preserveAspectRatio="none" width="100%" height="100%" overflow="visible" style="display: block;" viewBox="0 0 168 128" fill="none" xmlns="http://www.w3.org/2000/svg">
<path id="Vector" d="M45.9056 24.1971C44.3324 24.308 42.885 24.7671 41.5636 25.5586C40.2421 26.3502 39.4555 27.3634 39.2195 28.5981V50.4449H19.7121C18.186 50.6033 16.7544 51.0624 15.4331 51.838C14.1116 52.598 13.3249 53.627 13.0889 54.8935V50.4449V24.197H6.62317C5.09714 24.3079 3.66554 24.767 2.34415 25.5585C1.02267 26.3501 0.236053 27.3633 0 28.598V50.4448V63.6163V89.8642H13.0889V63.6163H39.2195V89.8642H52.3084V63.6163V50.4448V24.1969H45.9056V24.1971ZM83.6801 17.7726H72.2851L65.5561 5.07248L73.5123 7.4539L73.5381 7.47199C73.3498 7.94386 73.2458 8.45901 73.2458 8.99859C73.2458 11.2616 75.0688 13.0961 77.3174 13.0961C79.5663 13.0961 81.3892 11.2615 81.3892 8.99859C81.3892 7.2112 80.2518 5.69136 78.6655 5.1314L83.68 0L88.6945 5.1314C87.1082 5.69136 85.9708 7.2112 85.9708 8.99859C85.9708 11.2616 87.7938 13.0961 90.0425 13.0961C92.2912 13.0961 94.1142 11.2615 94.1142 8.99859C94.1142 8.45901 94.0102 7.94386 93.8218 7.47199L93.8476 7.4539L101.804 5.07248L95.0749 17.7726H83.6799H83.6801ZM72.5769 19.4371H94.8219V22.3357H72.5769V19.4371ZM106.756 10.1401L105.383 13.9069L101.475 14.0859L104.534 16.5926L103.492 20.4702L106.756 18.2526L110.02 20.4702L108.978 16.5926L112.037 14.0859L108.129 13.9069L106.756 10.1401ZM122.944 11.9805L121.554 15.7499L117.599 15.9289L120.695 18.4375L119.641 22.3177L122.944 20.0985L126.247 22.3177L125.192 18.4375L128.288 15.9289L124.333 15.7499L122.944 11.9805ZM60.68 10.1401L62.0529 13.9069L65.9608 14.0859L62.9016 16.5926L63.9437 20.4702L60.68 18.2526L57.4162 20.4702L58.4584 16.5926L55.3991 14.0859L59.307 13.9069L60.68 10.1401ZM44.4921 11.9805L45.8817 15.7499L49.8366 15.9289L46.7404 18.4375L47.7952 22.3177L44.4921 20.0985L41.189 22.3177L42.2438 18.4375L39.1475 15.9289L43.1025 15.7499L44.4921 11.9805ZM6.61729 94.2001C6.11494 94.2361 5.61957 94.3849 5.13721 94.6416C4.65494 94.8982 4.33102 95.2267 4.1704 95.627L8.40045e-05 115.49H4.24357L8.71353 94.2001H6.61729ZM18.7203 94.2001C18.218 94.2361 17.7226 94.3849 17.2402 94.6416C16.7579 94.8982 16.434 95.2267 16.2734 95.627L12.1031 115.49H16.3466L19.0179 102.766L23.0382 115.49H24.803H26.5626L35.9821 102.741L33.3054 115.49H37.5489L42.0188 94.2001H37.7754L25.8788 110.44L20.8166 94.2001H18.7203ZM52.0257 94.2001C51.5233 94.2361 51.0279 94.3849 50.5456 94.6416C50.0632 94.8982 49.7393 95.2267 49.5788 95.627L47.236 106.785L45.4084 115.49H49.6519L51.4796 106.785H57.9469C59.0944 106.785 60.1993 106.503 61.2625 105.933C62.3297 105.369 63.244 104.609 64.0055 103.654C64.7659 102.705 65.2735 101.647 65.5181 100.482C65.7595 99.3327 65.6959 98.2754 65.3342 97.3259C64.9735 96.3712 64.3783 95.6116 63.5481 95.047C62.723 94.4824 61.7367 94.2001 60.5892 94.2001H54.1218H52.0256H52.0257ZM53.2252 98.4704H59.6926C60.2435 98.4704 60.6717 98.6654 60.9814 99.0607C61.2912 99.4559 61.3899 99.9332 61.2746 100.482C61.1571 101.042 60.8569 101.524 60.3813 101.919C59.9055 102.315 59.3943 102.515 58.8435 102.515H54.5234C54.0211 102.551 53.5258 102.7 53.0435 102.956C52.5611 103.213 52.2372 103.541 52.0767 103.942L52.3762 102.515L53.2253 98.4705L53.2252 98.4704ZM85.2748 94.2001C83.8212 94.2001 82.3921 94.4722 80.9904 95.0265C79.5899 95.5757 78.3021 96.3404 77.1333 97.3156C75.9585 98.2959 74.9654 99.4302 74.1492 100.718C73.3279 102.007 72.7688 103.382 72.4616 104.845C72.1523 106.318 72.1328 107.699 72.4131 108.987C72.6884 110.275 73.2061 111.404 73.9705 112.38C74.7309 113.35 75.6985 114.109 76.8675 114.664C78.0374 115.213 79.3512 115.49 80.8049 115.49C82.2687 115.49 83.6989 115.213 85.0944 114.664C86.4909 114.109 87.7725 113.35 88.9453 112.38C90.1141 111.404 91.106 110.275 91.9273 108.987C92.7435 107.699 93.3088 106.318 93.6181 104.845C93.9253 103.382 93.9386 102.007 93.6633 100.718C93.3829 99.4302 92.8663 98.296 92.1082 97.3156C91.3437 96.3405 90.3823 95.5757 89.2174 95.0265C88.0536 94.4721 86.7388 94.2001 85.2748 94.2001ZM84.36 98.5577C85.5127 98.5577 86.5041 98.84 87.3331 99.4096C88.1581 99.9743 88.7535 100.734 89.1193 101.689C89.4809 102.638 89.5406 103.69 89.2981 104.845C89.0545 106.005 88.552 107.062 87.7906 108.017C87.025 108.967 86.1107 109.726 85.0475 110.296C83.9804 110.86 82.8703 111.143 81.7177 111.143C80.5701 111.143 79.5838 110.86 78.7486 110.296C77.9144 109.726 77.319 108.967 76.9574 108.017C76.5916 107.062 76.5331 106.005 76.7766 104.845C77.0191 103.69 77.5205 102.638 78.286 101.689C79.0475 100.734 79.9619 99.9743 81.0342 99.4096C82.1075 98.8399 83.2124 98.5577 84.36 98.5577ZM105.86 94.2001C105.358 94.2361 104.862 94.3849 104.38 94.6416C103.898 94.8982 103.574 95.2267 103.413 95.627L101.07 106.785L99.2426 115.49H103.486L105.314 106.785H108.104L111.3 115.49H116.201L112.956 106.677C113.973 106.477 114.927 106.087 115.808 105.507C116.691 104.922 117.45 104.198 118.082 103.326C118.714 102.453 119.138 101.504 119.352 100.482C119.594 99.3328 119.53 98.2755 119.168 97.326C118.808 96.3713 118.212 95.6117 117.382 95.0471C116.557 94.4825 115.571 94.2002 114.423 94.2002H107.956H105.86L105.86 94.2001ZM107.06 98.4704H113.527C114.078 98.4704 114.506 98.6654 114.816 99.0607C115.125 99.4559 115.224 99.9332 115.109 100.482C114.991 101.042 114.691 101.524 114.215 101.919C113.74 102.315 113.228 102.515 112.678 102.515H108.358C107.855 102.551 107.36 102.7 106.878 102.956C106.395 103.213 106.071 103.541 105.911 103.942L106.21 102.515L107.06 98.4705L107.06 98.4704ZM133.519 94.2001H130.678C130.176 94.2361 129.68 94.3849 129.198 94.6416C128.716 94.8982 128.392 95.2267 128.231 95.627L127.634 98.4704H132.622L129.049 115.49H133.293L136.866 98.4704H141.844L142.741 94.2001H137.762H133.519ZM153.471 100.739C153.417 101.211 153.512 101.586 153.737 101.873C153.968 102.161 154.225 102.371 154.506 102.515C154.793 102.653 154.987 102.746 155.102 102.782C155.141 102.792 155.16 102.797 155.16 102.797C155.899 103.018 156.61 103.3 157.287 103.649C157.97 103.993 158.558 104.419 159.061 104.917C159.562 105.42 159.922 106.015 160.143 106.708C160.36 107.401 160.377 108.197 160.187 109.1C159.941 110.27 159.425 111.343 158.652 112.308C157.877 113.278 156.95 114.048 155.864 114.628C154.785 115.203 153.658 115.49 152.495 115.49H152.48C151.312 115.49 150.312 115.203 149.468 114.628C148.631 114.048 148.023 113.278 147.655 112.308C147.286 111.343 147.226 110.27 147.472 109.1H151.715C151.599 109.701 151.702 110.209 152.024 110.619C152.346 111.03 152.792 111.235 153.373 111.235H153.389C153.965 111.235 154.509 111.025 155.016 110.604C155.522 110.183 155.837 109.68 155.959 109.1C156.041 108.71 156.007 108.361 155.86 108.063C155.715 107.76 155.494 107.499 155.195 107.273C154.9 107.047 154.556 106.842 154.161 106.657C153.766 106.472 153.355 106.292 152.922 106.123C152.395 105.913 151.901 105.687 151.427 105.445C150.952 105.204 150.567 104.927 150.264 104.619C150.161 104.527 150.051 104.393 149.931 104.214C149.607 103.762 149.377 103.28 149.245 102.766C149.137 102.335 149.1 101.878 149.132 101.386C149.156 101.124 149.202 100.857 149.258 100.59C149.505 99.4147 150.015 98.3471 150.79 97.3771C151.564 96.4121 152.497 95.6371 153.576 95.0623C154.661 94.4874 155.782 94.2001 156.95 94.2001H156.965C158.128 94.2001 159.134 94.4875 159.972 95.0623C160.815 95.6371 161.418 96.4121 161.786 97.3771C162.154 98.3471 162.22 99.4147 161.974 100.59H157.745C157.868 100.005 157.764 99.5071 157.438 99.0914C157.112 98.6756 156.655 98.4703 156.069 98.4703H156.053C155.472 98.4703 154.934 98.6756 154.434 99.0914C153.933 99.5071 153.625 100.005 153.502 100.59C153.492 100.636 153.482 100.688 153.471 100.739L153.471 100.739ZM46.511 119.556L47.0993 128H45.3557L45.2311 126.17H42.9615L42.1152 128H40.3736L44.0308 120.122C44.0884 119.964 44.2031 119.833 44.3708 119.731C44.5387 119.63 44.7221 119.571 44.9171 119.556H46.0256H46.5111H46.511ZM128.388 121.08H141.677L141.308 122.067H128.388V121.08ZM128.388 123.276H140.597L140.228 124.263H128.388V123.276H128.388ZM128.388 125.52H139.494L139.125 126.506H128.388V125.52ZM39.2261 121.08H25.9368L26.3061 122.067H39.2261V121.08ZM39.2261 123.276H27.0166L27.3859 124.263H39.2261V123.276H39.2261ZM39.2261 125.52H28.1197L28.4889 126.506H39.2261V125.52ZM86.3078 119.557C86.1086 119.571 85.9122 119.63 85.7211 119.732C85.53 119.833 85.4017 119.964 85.3383 120.123L84.4169 124.548L83.6979 128H85.3808L86.0998 124.548H88.6646C89.1198 124.548 89.5577 124.436 89.979 124.21C90.4019 123.986 90.764 123.685 91.0653 123.306C91.3662 122.929 91.5668 122.51 91.663 122.048C91.758 121.592 91.7321 121.173 91.588 120.796C91.4444 120.418 91.2077 120.116 90.8781 119.893C90.5504 119.669 90.1591 119.557 89.704 119.557H87.1391H86.3078V119.557ZM86.7866 121.25H89.3514C89.5698 121.25 89.7399 121.328 89.863 121.484C89.9861 121.641 90.0256 121.83 89.9802 122.048C89.934 122.27 89.8153 122.461 89.6268 122.618C89.4385 122.775 89.2358 122.854 89.0174 122.854H87.3041C87.1048 122.869 86.9084 122.928 86.7173 123.029C86.5263 123.131 86.398 123.261 86.3346 123.42L86.4525 122.854L86.7865 121.25L86.7866 121.25ZM98.3614 119.557L98.8566 128H97.113L97.0086 126.17H94.7389L93.8724 128H92.1308L95.875 120.123C95.9343 119.964 96.0505 119.833 96.2193 119.732C96.3883 119.63 96.5725 119.571 96.7676 119.557H97.8761H98.3615H98.3614ZM95.5428 124.477L95.2813 125.042C95.3427 124.884 95.4588 124.753 95.6276 124.652C95.7965 124.55 95.9808 124.491 96.182 124.477H96.9102L96.7671 121.9L95.5428 124.477H95.5428ZM104.478 119.557C104.279 119.571 104.083 119.63 103.892 119.732C103.7 119.833 103.572 119.964 103.509 120.123L102.587 124.548L101.868 128H103.551L104.27 124.548H105.377L106.65 128H108.594L107.301 124.505C107.704 124.426 108.082 124.271 108.431 124.041C108.781 123.809 109.082 123.522 109.332 123.176C109.582 122.83 109.749 122.453 109.833 122.048C109.928 121.592 109.902 121.173 109.758 120.796C109.615 120.418 109.378 120.116 109.048 119.893C108.721 119.669 108.329 119.557 107.874 119.557H105.31H104.478V119.557ZM104.957 121.25H107.522C107.74 121.25 107.91 121.328 108.033 121.484C108.156 121.641 108.196 121.83 108.151 122.048C108.104 122.27 107.986 122.461 107.797 122.618C107.609 122.775 107.406 122.854 107.188 122.854H105.474C105.275 122.869 105.079 122.928 104.888 123.029C104.697 123.131 104.568 123.261 104.505 123.42L104.623 122.854L104.957 121.25L104.957 121.25ZM115.342 119.557H114.216C114.017 119.571 113.82 119.63 113.629 119.732C113.438 119.833 113.31 119.964 113.246 120.123L113.011 121.25H114.99L113.584 128H115.267L116.673 121.25H118.647L119 119.557H117.025H115.342ZM123.154 122.15C123.133 122.337 123.171 122.486 123.261 122.6C123.352 122.714 123.454 122.797 123.566 122.854C123.68 122.909 123.757 122.946 123.803 122.96C123.818 122.964 123.826 122.966 123.826 122.966C124.119 123.054 124.401 123.166 124.67 123.304C124.941 123.44 125.175 123.609 125.374 123.807C125.573 124.006 125.716 124.242 125.805 124.517C125.891 124.792 125.898 125.108 125.824 125.466C125.727 125.93 125.523 126.355 125.217 126.738C124.91 127.123 124.543 127.428 124.113 127.658C123.685 127.886 123.239 128 122.778 128H122.771C122.308 128 121.911 127.886 121.576 127.658C121.244 127.428 121.002 127.123 120.856 126.738C120.709 126.355 120.684 125.93 120.781 125.466H122.464C122.418 125.704 122.459 125.905 122.587 126.068C122.715 126.231 122.892 126.313 123.123 126.313H123.129C123.358 126.313 123.573 126.229 123.774 126.062C123.974 125.895 124.099 125.696 124.147 125.466C124.179 125.311 124.165 125.173 124.107 125.055C124.049 124.934 123.961 124.831 123.843 124.741C123.726 124.652 123.589 124.57 123.432 124.497C123.276 124.424 123.112 124.352 122.94 124.285C122.731 124.202 122.535 124.112 122.347 124.016C122.158 123.921 122.005 123.811 121.885 123.689C121.844 123.652 121.801 123.599 121.753 123.528C121.624 123.349 121.533 123.157 121.48 122.954C121.437 122.783 121.422 122.602 121.434 122.406C121.444 122.302 121.462 122.197 121.484 122.091C121.581 121.625 121.782 121.201 122.089 120.817C122.395 120.434 122.765 120.126 123.192 119.898C123.622 119.67 124.066 119.557 124.53 119.557H124.536C124.997 119.557 125.396 119.67 125.729 119.898C126.064 120.126 126.303 120.434 126.45 120.817C126.596 121.201 126.623 121.625 126.526 122.091H124.849C124.898 121.859 124.856 121.661 124.727 121.496C124.597 121.331 124.416 121.25 124.183 121.25H124.177C123.946 121.25 123.733 121.331 123.535 121.496C123.337 121.661 123.215 121.859 123.166 122.091C123.163 122.109 123.158 122.129 123.154 122.15L123.154 122.15ZM43.7465 124.477L43.4913 125.042C43.551 124.884 43.6656 124.753 43.8334 124.652C44.0011 124.55 44.1848 124.491 44.3858 124.477H45.114L44.9425 121.9L43.7466 124.477H43.7465ZM51.8751 119.557C51.6761 119.571 51.4804 119.63 51.2904 119.732C51.1004 119.833 50.9736 119.964 50.9118 120.123L50.0253 124.619C49.9028 125.24 49.9429 125.806 50.1452 126.319C50.3474 126.832 50.6738 127.239 51.1213 127.544C51.5691 127.847 52.1033 128 52.7243 128C53.3393 128 53.9317 127.847 54.4993 127.544C55.0672 127.239 55.554 126.832 55.9586 126.319C56.3632 125.806 56.6285 125.24 56.751 124.619L57.7492 119.557H56.926C56.7209 119.571 56.5233 119.63 56.3332 119.732C56.1431 119.833 56.0164 119.964 55.9547 120.123L55.7324 121.25L55.6902 121.464L55.068 124.619C55.0069 124.928 54.8743 125.211 54.672 125.468C54.4697 125.724 54.2248 125.93 53.9398 126.083C53.6548 126.235 53.3604 126.313 53.0571 126.313C52.7475 126.313 52.4816 126.235 52.2569 126.083C52.0321 125.93 51.8704 125.724 51.7673 125.468C51.6661 125.211 51.6471 124.928 51.7081 124.619L52.3303 121.464L52.3725 121.25L52.7064 119.557H51.8751ZM62.7756 119.557H61.649C61.45 119.571 61.2542 119.63 61.0643 119.732C60.8743 119.833 60.7474 119.964 60.6858 120.123L60.4633 121.25H62.4417L61.1106 128H62.7935L64.1246 121.25H66.0989L66.4329 119.557H64.4586H62.7756ZM72.768 119.557C72.1914 119.557 71.6261 119.664 71.073 119.884C70.5203 120.102 70.0135 120.405 69.5549 120.792C69.0939 121.181 68.7058 121.631 68.3886 122.142C68.0694 122.653 67.8545 123.198 67.7402 123.778C67.625 124.362 67.6242 124.91 67.7419 125.421C67.8576 125.932 68.0687 126.38 68.3767 126.766C68.6833 127.151 69.0708 127.452 69.5372 127.672C70.004 127.89 70.5263 128 71.1029 128C71.6835 128 72.2492 127.89 72.7999 127.672C73.351 127.452 73.8553 127.151 74.3156 126.766C74.7743 126.38 75.1618 125.932 75.4811 125.421C75.7983 124.91 76.0155 124.362 76.1307 123.778C76.2451 123.198 76.2434 122.653 76.1277 122.142C76.01 121.631 75.7994 121.181 75.4937 120.792C75.1856 120.405 74.8004 120.102 74.3357 119.884C73.8714 119.664 73.3485 119.557 72.768 119.557ZM72.4272 121.285C72.8843 121.285 73.2789 121.397 73.6105 121.623C73.9407 121.847 74.1806 122.148 74.3305 122.526C74.4787 122.903 74.5077 123.32 74.4174 123.778C74.3267 124.238 74.1327 124.658 73.8356 125.036C73.5367 125.413 73.1779 125.714 72.7592 125.94C72.3388 126.164 71.9001 126.276 71.443 126.276C70.9877 126.276 70.5953 126.164 70.2611 125.94C69.9274 125.714 69.6874 125.413 69.5392 125.036C69.3893 124.658 69.3607 124.238 69.4515 123.778C69.5418 123.32 69.7353 122.903 70.0341 122.526C70.3313 122.148 70.6901 121.846 71.1125 121.623C71.5353 121.397 71.972 121.285 72.4272 121.285ZM86.11 55.7912C85.8471 55.7374 85.557 55.4588 85.5307 55.1837C85.5086 54.7399 85.9636 54.5737 86.3318 54.5876C86.6984 54.6109 87.2941 54.8208 87.6183 54.9973C87.8621 55.1299 87.8878 55.4346 87.6411 55.581C87.3764 55.7228 86.408 55.8455 86.1099 55.7912H86.11ZM65.7507 62.4439C64.1431 62.4439 62.8398 61.1324 62.8398 59.5147C62.8398 57.897 64.1431 56.5855 65.7507 56.5855C67.3582 56.5855 68.6615 57.897 68.6615 59.5147C68.6615 61.1324 67.3582 62.4439 65.7507 62.4439ZM90.7976 62.4439C89.19 62.4439 87.8868 61.1324 87.8868 59.5147C87.8868 57.897 89.19 56.5855 90.7976 56.5855C92.4053 56.5855 93.7084 57.897 93.7084 59.5147C93.7084 61.1324 92.4053 62.4439 90.7976 62.4439ZM63.8428 59.4296H65.1405V59.5998H63.8428C63.8624 60.0516 64.0385 60.4786 64.3418 60.812L65.2595 59.8886L65.3193 59.9488L65.379 60.009L64.4614 60.9324C64.7927 61.2377 65.2172 61.4149 65.6661 61.4346V60.1286H65.8352V61.4346C66.2842 61.4149 66.7086 61.2378 67.0399 60.9324L66.1223 60.009L66.182 59.9488L66.2418 59.8886L67.1595 60.812C67.4628 60.4786 67.6388 60.0515 67.6585 59.5998H66.3607V59.4296H67.6585C67.6389 58.9778 67.4629 58.5507 67.1595 58.2173L66.2418 59.1408L66.182 59.0806L66.1223 59.0204L67.0399 58.097C66.7085 57.7916 66.2841 57.6145 65.8352 57.5948V58.9008H65.6661V57.5948C65.2171 57.6145 64.7927 57.7916 64.4614 58.097L65.379 59.0204L65.3193 59.0806L65.2595 59.1408L64.3418 58.2173C64.0384 58.5507 63.8624 58.9779 63.8428 59.4296ZM65.8422 59.8585C65.9025 59.8423 65.965 59.8787 65.9812 59.9393C65.9973 59.9999 65.9612 60.0628 65.9009 60.0791C65.8407 60.0953 65.7782 60.0589 65.7621 59.9984C65.7459 59.9378 65.782 59.8748 65.8422 59.8585ZM65.659 59.8585C65.7193 59.8748 65.7554 59.9378 65.7392 59.9984C65.7231 60.0589 65.6605 60.0953 65.6003 60.0791C65.5401 60.0628 65.504 59.9999 65.5201 59.9393C65.5363 59.8787 65.5989 59.8423 65.659 59.8585ZM65.4236 59.6506C65.4475 59.7086 65.4198 59.7756 65.3621 59.7997C65.3045 59.8236 65.2378 59.7959 65.2139 59.7378C65.1902 59.6799 65.2179 59.6127 65.2755 59.5887C65.3332 59.5647 65.3999 59.5926 65.4236 59.6506ZM65.8422 59.1709C65.782 59.1546 65.7459 59.0916 65.7621 59.031C65.7782 58.9704 65.8407 58.9341 65.9009 58.9503C65.9612 58.9666 65.9973 59.0295 65.9812 59.0901C65.965 59.1507 65.9025 59.187 65.8422 59.1709ZM66.0776 59.3788C66.0538 59.3208 66.0815 59.2537 66.1392 59.2297C66.1968 59.2058 66.2635 59.2335 66.2873 59.2916C66.3111 59.3496 66.2834 59.4167 66.2258 59.4407C66.1682 59.4646 66.1015 59.4368 66.0776 59.3788ZM65.659 59.1709C65.5989 59.187 65.5363 59.1507 65.5201 59.0901C65.504 59.0295 65.5401 58.9666 65.6003 58.9503C65.6605 58.9341 65.7231 58.9704 65.7392 59.031C65.7554 59.0916 65.7193 59.1546 65.659 59.1709ZM65.4236 59.3788C65.3999 59.4368 65.3332 59.4646 65.2755 59.4407C65.2179 59.4167 65.1902 59.3496 65.2139 59.2916C65.2378 59.2335 65.3045 59.2058 65.3621 59.2297C65.4198 59.2537 65.4475 59.3208 65.4236 59.3788ZM65.7507 59.6854C65.657 59.6854 65.581 59.6089 65.581 59.5147C65.581 59.4204 65.657 59.344 65.7507 59.344C65.8442 59.344 65.9202 59.4204 65.9202 59.5147C65.9202 59.6089 65.8442 59.6854 65.7507 59.6854ZM66.0776 59.6506C66.1015 59.5926 66.1682 59.5647 66.2258 59.5887C66.2834 59.6127 66.3111 59.6799 66.2873 59.7378C66.2635 59.7959 66.1968 59.8236 66.1392 59.7997C66.0815 59.7756 66.0538 59.7086 66.0776 59.6506ZM88.8899 59.4296H90.1876V59.5998H88.8899C88.9095 60.0516 89.0855 60.4786 89.3889 60.812L90.3065 59.8886L90.3663 59.9488L90.426 60.009L89.5085 60.9324C89.8399 61.2377 90.2643 61.4149 90.7132 61.4346V60.1286H90.8823V61.4346C91.3312 61.4149 91.7557 61.2378 92.087 60.9324L91.1693 60.009L91.229 59.9488L91.2889 59.8886L92.2065 60.812C92.5099 60.4786 92.6859 60.0515 92.7055 59.5998H91.4078V59.4296H92.7055C92.686 58.9778 92.51 58.5507 92.2065 58.2173L91.2889 59.1408L91.229 59.0806L91.1693 59.0204L92.087 58.097C91.7556 57.7916 91.3312 57.6145 90.8823 57.5948V58.9008H90.7132V57.5948C90.2643 57.6145 89.8398 57.7916 89.5085 58.097L90.426 59.0204L90.3663 59.0806L90.3065 59.1408L89.3889 58.2173C89.0855 58.5507 88.9095 58.9779 88.8899 59.4296ZM90.8893 59.8585C90.9496 59.8423 91.0121 59.8787 91.0282 59.9393C91.0444 59.9999 91.0083 60.0628 90.948 60.0791C90.8878 60.0953 90.8252 60.0589 90.8091 59.9984C90.793 59.9378 90.8291 59.8748 90.8893 59.8585ZM90.7061 59.8585C90.7663 59.8748 90.8025 59.9378 90.7863 59.9984C90.7701 60.0589 90.7076 60.0953 90.6474 60.0791C90.5872 60.0628 90.551 59.9999 90.5672 59.9393C90.5834 59.8787 90.6459 59.8423 90.7061 59.8585ZM90.4707 59.6506C90.4945 59.7086 90.4668 59.7756 90.4092 59.7997C90.3516 59.8236 90.2849 59.7959 90.2611 59.7378C90.2373 59.6798 90.2649 59.6127 90.3226 59.5887C90.3802 59.5647 90.4469 59.5926 90.4707 59.6506ZM90.8893 59.1709C90.8291 59.1546 90.793 59.0916 90.8091 59.031C90.8252 58.9705 90.8878 58.9341 90.948 58.9503C91.0083 58.9666 91.0444 59.0295 91.0282 59.0901C91.0121 59.1507 90.9496 59.187 90.8893 59.1709ZM91.1247 59.3788C91.1009 59.3208 91.1286 59.2537 91.1862 59.2297C91.2438 59.2058 91.3105 59.2335 91.3344 59.2916C91.3582 59.3495 91.3304 59.4167 91.2728 59.4407C91.2152 59.4646 91.1485 59.4368 91.1247 59.3788ZM90.7061 59.1709C90.6459 59.187 90.5834 59.1507 90.5672 59.0901C90.551 59.0295 90.5872 58.9666 90.6474 58.9503C90.7076 58.9341 90.7701 58.9704 90.7863 59.031C90.8025 59.0916 90.7663 59.1546 90.7061 59.1709ZM90.4707 59.3788C90.4469 59.4368 90.3802 59.4646 90.3226 59.4407C90.2649 59.4167 90.2373 59.3496 90.2611 59.2916C90.2849 59.2335 90.3516 59.2058 90.4092 59.2297C90.4668 59.2537 90.4945 59.3208 90.4707 59.3788ZM90.7977 59.6854C90.7041 59.6854 90.6282 59.6089 90.6282 59.5147C90.6282 59.4204 90.7041 59.344 90.7977 59.344C90.8914 59.344 90.9673 59.4204 90.9673 59.5147C90.9673 59.6089 90.8914 59.6854 90.7977 59.6854ZM91.1247 59.6506C91.1485 59.5926 91.2152 59.5647 91.2728 59.5887C91.3304 59.6127 91.3582 59.6798 91.3344 59.7378C91.3105 59.7959 91.2438 59.8236 91.1862 59.7997C91.1286 59.7756 91.1009 59.7086 91.1247 59.6506ZM58.6253 58.7674H62.4326L62.4283 58.7863C62.366 59.064 62.335 59.3479 62.335 59.6324C62.335 60.1383 62.4327 60.6388 62.6275 61.1055L62.6367 61.1274L62.4052 61.1244L59.7096 60.1151L58.6254 58.7674H58.6253ZM94.5219 60.114H99.2769C99.459 59.9741 99.6409 59.8345 99.8229 59.6947C99.9356 59.6852 99.8965 59.8817 99.8183 59.9333C98.4828 60.8169 95.6806 61.1556 94.1414 61.1403C94.3059 60.8444 94.4369 60.4812 94.522 60.114H94.5219ZM73.3325 55.8881L73.5842 56.5271L86.7745 57.5954L73.3325 55.8881ZM70.825 60.4426L71.2081 59.7388L86.8939 60.5765L70.825 60.4425V60.4426ZM75.9053 59.4831L74.5776 58.8966C74.4746 58.8511 74.3987 58.7832 74.3415 58.6857L72.701 55.8834C72.6607 55.8143 72.6509 55.74 72.6724 55.6629C72.6938 55.5857 72.7399 55.5266 72.8103 55.4892L73.7902 54.9679C73.8015 54.9619 73.8065 54.9487 73.8023 54.9367C73.7981 54.9246 73.7859 54.9172 73.7735 54.9197L71.9581 55.2955C71.8285 55.3223 71.7267 55.4 71.674 55.5221C71.6211 55.6442 71.6315 55.7737 71.703 55.8858L73.5568 58.791C73.6701 58.9686 73.8331 59.0755 74.0379 59.1208L75.8898 59.5319C75.9026 59.5347 75.9153 59.527 75.9192 59.5144C75.9233 59.5019 75.917 59.4883 75.9053 59.4831ZM68.9616 55.9737L70.8334 58.592C71.0141 58.8448 71.0297 59.1606 70.8769 59.4313L70.1553 60.7092C70.1489 60.7208 70.1345 60.7254 70.1224 60.7198C70.1103 60.7142 70.1043 60.7003 70.109 60.6877L70.6206 59.3111C70.6868 59.1331 70.6689 58.9516 70.5722 58.7885L68.9186 56.0018C68.9117 55.99 68.9154 55.9745 68.9269 55.967C68.9385 55.9596 68.9537 55.9626 68.9616 55.9736V55.9737ZM97.0308 58.3993C97.1848 58.4157 98.2211 58.5113 98.2769 58.4155C98.3098 58.3592 98.0434 58.1572 98.0011 58.1211C97.6535 57.8249 97.304 57.5905 96.9097 57.363C96.1804 56.9586 95.2998 56.6257 94.4737 56.5088C94.2151 56.4722 94.3431 56.5366 94.4729 56.6407C95.1105 57.1523 95.6725 57.6541 96.3694 58.0962C96.5464 58.2067 96.8229 58.3705 97.0309 58.3993H97.0308ZM73.3919 54.0514L74.5787 52.7471L75.9529 52.6528L76.5776 54.6486L73.3919 54.0514ZM76.4839 52.6685L77.1242 54.735L83.8879 55.9014C84.0805 55.9347 84.2471 55.949 84.4426 55.949H86.2308L86.3292 56.157L87.3728 55.9687L87.7962 55.6121L88.8496 55.2455C86.2993 54.2264 83.5136 53.3739 80.7386 52.7128C80.3794 52.6272 80.0637 52.5934 79.6946 52.6011L76.484 52.6685H76.4839ZM59.0953 54.4721L59.5734 55.392C59.6733 55.5844 59.8582 55.697 60.074 55.697H61.2117C61.2981 55.697 61.3481 55.6294 61.3877 55.5522C61.6135 55.1121 60.2265 54.2839 59.136 54.396C59.1183 54.3978 59.104 54.4075 59.0956 54.4231C59.0872 54.4388 59.0871 54.4562 59.0953 54.4721ZM64.4689 24.1974C62.9429 24.3083 61.5113 24.7674 60.1898 25.5589C58.8684 26.3504 58.0818 27.3637 57.8457 28.5984V63.015V89.8645H70.9347V63.5683H79.54L95.0359 89.8645H110.154L94.438 62.6825C97.4428 62.0651 100.133 60.862 102.477 59.0731C104.821 57.2683 106.693 55.0362 108.077 52.3448C109.462 49.6536 110.154 46.7248 110.154 43.5744C110.154 40.0283 109.273 36.767 107.543 33.8383C105.812 30.8937 103.484 28.5507 100.558 26.8093C97.6473 25.0679 94.4223 24.1972 90.8826 24.1972H70.9347H64.4689V24.1974ZM70.9347 37.3688H90.8826C92.5816 37.3688 94.0289 37.9704 95.2403 39.1894C96.4516 40.4083 97.0652 41.8807 97.0652 43.5746C97.0652 45.3002 96.4516 46.7883 95.2403 48.0073C94.0289 49.2262 92.5816 49.8437 90.8826 49.8437H77.5577C76.0317 49.9545 74.6001 50.4136 73.2786 51.2051C72.7207 51.5393 72.2581 51.913 71.8921 52.3262L73.9304 52.0669C77.5383 51.5657 82.9191 51.8245 90.1571 55.1287C95.7706 55.4464 99.7138 58.8965 99.7138 58.8965L98.9372 59.7731H94.3295L94.2686 59.7858C94.2755 59.6954 94.2789 59.604 94.2789 59.5118C94.2789 57.5516 92.6999 55.9626 90.7521 55.9626C88.8043 55.9626 87.2252 57.5516 87.2252 59.5118C87.2252 60.1092 87.3721 60.6719 87.6312 61.1658L68.8824 61.1931L68.8427 61.1926C69.0534 60.7196 69.1713 60.1906 69.1713 59.6324C69.1713 57.6181 67.6375 55.9852 65.7454 55.9852C64.3878 55.9852 63.2149 56.8257 62.6604 58.0447H59.0251H58.8541C58.5258 58.0447 58.2571 57.7744 58.2571 57.444V57.4439C58.2571 57.1136 58.5258 56.8432 58.8541 56.8432H59.2617L59.2728 55.8288L58.5212 54.0949L66.6126 52.9979L70.9346 52.448V49.8436V37.3687L70.9347 37.3688ZM122.315 24.1974C120.789 24.3083 119.357 24.7674 118.036 25.5589C116.714 26.3504 115.928 27.3637 115.692 28.5984V50.6668V63.8383V89.8645H148.54C152.111 89.8645 155.367 88.978 158.309 87.2208C161.267 85.4635 163.611 83.0889 165.373 80.1285C167.119 77.1522 168 73.8752 168 70.2974C168 66.7671 167.135 63.5375 165.436 60.5929C163.737 57.6642 161.471 55.3053 158.64 53.5481C160.276 50.6352 161.078 47.469 161.078 44.0336C161.078 40.3924 160.197 37.0679 158.404 34.076C156.626 31.0681 154.25 28.6774 151.261 26.8728C148.288 25.0839 144.984 24.1974 141.35 24.1974H122.315ZM141.35 63.8383H148.54C150.27 63.8383 151.749 64.4716 153.023 65.7538C154.282 67.0203 154.911 68.5243 154.911 70.2974C154.911 72.0546 154.282 73.5744 153.023 74.8408C151.749 76.1073 150.27 76.7406 148.54 76.7406H135.404C133.878 76.8672 132.446 77.3105 131.125 78.0862C129.803 78.862 129.016 79.8751 128.78 81.1416V76.7406V63.8383H141.35H141.35ZM128.781 37.3688H141.35C143.175 37.3688 144.733 38.018 146.038 39.3319C147.344 40.6459 147.989 42.2131 147.989 44.0337C147.989 45.8385 147.344 47.3899 146.038 48.7039C144.733 50.0179 143.175 50.6669 141.35 50.6669H135.404C133.878 50.7935 132.446 51.2527 131.125 52.0442C129.803 52.8358 129.017 53.849 128.781 55.0837V50.6669V37.3688Z" fill="var(--fill-0, white)"/>
</svg>
