<svg preserveAspectRatio="none" width="100%" height="100%" overflow="visible" style="display: block;" viewBox="0 0 64 49" fill="none" xmlns="http://www.w3.org/2000/svg">
<path id="Vector" d="M17.4878 9.26295C16.8885 9.30541 16.3372 9.48116 15.8337 9.78416C15.3303 10.0872 15.0307 10.4751 14.9408 10.9477V19.3109H7.50936C6.92802 19.3716 6.38265 19.5473 5.87926 19.8443C5.37584 20.1352 5.07614 20.5291 4.98625 21.0139V19.3109V9.26292H2.52311C1.94177 9.30538 1.39639 9.48113 0.893008 9.78412C0.389589 10.0871 0.0899248 10.475 0 10.9477V19.3109V24.3531V34.4011H4.98625V24.3531H14.9408V34.4011H19.927V24.3531V19.3109V9.26289H17.4878V9.26295ZM31.8781 6.80356H27.5372L24.9738 1.94181L28.0047 2.85345L28.0145 2.86037C27.9428 3.04101 27.9032 3.23821 27.9032 3.44477C27.9032 4.31107 28.5976 5.01333 29.4542 5.01333C30.311 5.01333 31.0054 4.31104 31.0054 3.44477C31.0054 2.76054 30.5721 2.17872 29.9678 1.96436L31.8781 0L33.7884 1.96436C33.1841 2.17872 32.7508 2.76054 32.7508 3.44477C32.7508 4.31107 33.4452 5.01333 34.3019 5.01333C35.1586 5.01333 35.853 4.31104 35.853 3.44477C35.853 3.23821 35.8134 3.04101 35.7417 2.86037L35.7515 2.85345L38.7824 1.94181L36.219 6.80356H31.8781H31.8781ZM27.6483 7.44078H36.1226V8.55037H27.6483V7.44078ZM40.6689 3.88174L40.1459 5.32374L38.6571 5.39225L39.8226 6.35187L39.4256 7.83623L40.6689 6.98734L41.9122 7.83623L41.5152 6.35187L42.6807 5.39225L41.192 5.32374L40.6689 3.88174ZM46.8357 4.58627L46.3064 6.02927L44.7997 6.09778L45.9792 7.05812L45.5774 8.54348L46.8357 7.69397L48.0941 8.54348L47.6922 7.05812L48.8717 6.09778L47.3651 6.02927L46.8357 4.58627ZM23.1162 3.88174L23.6392 5.32374L25.1279 5.39225L23.9625 6.35187L24.3595 7.83623L23.1162 6.98734L21.8729 7.83623L22.2699 6.35187L21.1044 5.39225L22.5931 5.32374L23.1162 3.88174ZM16.9494 4.58627L17.4787 6.02927L18.9854 6.09778L17.8059 7.05812L18.2077 8.54348L16.9494 7.69397L15.691 8.54348L16.0929 7.05812L14.9133 6.09778L16.42 6.02927L16.9494 4.58627ZM2.52087 36.061C2.3295 36.0747 2.14079 36.1317 1.95703 36.23C1.77331 36.3282 1.64991 36.454 1.58873 36.6072L3.20017e-05 44.211H1.6166L3.31944 36.061H2.52087ZM7.13155 36.061C6.94018 36.0747 6.75147 36.1317 6.56771 36.23C6.38396 36.3282 6.26056 36.454 6.1994 36.6072L4.61071 44.211H6.22728L7.24493 39.3403L8.77647 44.211H9.44876H10.1191L13.7075 39.3304L12.6878 44.211H14.3043L16.0072 36.061H14.3906L9.85858 42.2777L7.93012 36.061H7.13155ZM19.8193 36.061C19.6279 36.0747 19.4392 36.1317 19.2555 36.23C19.0717 36.3282 18.9483 36.454 18.8872 36.6072L17.9947 40.8787L17.2984 44.211H18.915L19.6113 40.8787H22.075C22.5121 40.8787 22.9331 40.7706 23.3381 40.5526C23.7446 40.3364 24.093 40.0456 24.383 39.6802C24.6727 39.3167 24.8661 38.9119 24.9593 38.4659C25.0512 38.0258 25.027 37.621 24.8892 37.2576C24.7518 36.8921 24.5251 36.6013 24.2088 36.3852C23.8945 36.169 23.5187 36.061 23.0816 36.061H20.6178H19.8193H19.8193ZM20.2763 37.6957H22.74C22.9499 37.6957 23.113 37.7704 23.231 37.9217C23.349 38.073 23.3866 38.2557 23.3427 38.4659C23.298 38.6801 23.1836 38.8648 23.0024 39.016C22.8212 39.1673 22.6264 39.244 22.4166 39.244H20.7708C20.5795 39.2577 20.3908 39.3147 20.207 39.413C20.0233 39.5112 19.8999 39.637 19.8387 39.7902L19.9528 39.244L20.2763 37.6957L20.2763 37.6957ZM32.4856 36.061C31.9319 36.061 31.3875 36.1651 30.8535 36.3773C30.32 36.5876 29.8294 36.8803 29.3841 37.2536C28.9366 37.6289 28.5582 38.0631 28.2473 38.5563C27.9345 39.0495 27.7215 39.576 27.6044 40.136C27.4866 40.6999 27.4792 41.2284 27.586 41.7216C27.6908 42.2147 27.8881 42.647 28.1792 43.0203C28.4689 43.3916 28.8375 43.6825 29.2828 43.8947C29.7285 44.1049 30.229 44.211 30.7828 44.211C31.3405 44.211 31.8853 44.1049 32.4169 43.8947C32.9489 43.6825 33.4372 43.3917 33.8839 43.0203C34.3292 42.647 34.707 42.2147 35.0199 41.7216C35.3308 41.2284 35.5462 40.6999 35.6641 40.136C35.7811 39.576 35.7861 39.0495 35.6813 38.5563C35.5744 38.0631 35.3776 37.6289 35.0888 37.2536C34.7976 36.8803 34.4313 36.5876 33.9876 36.3773C33.5442 36.1651 33.0433 36.061 32.4856 36.061ZM32.1371 37.7291C32.5763 37.7291 32.954 37.8372 33.2697 38.0553C33.584 38.2714 33.8109 38.5622 33.9502 38.9276C34.088 39.2911 34.1107 39.6939 34.0183 40.136C33.9255 40.58 33.7341 40.9848 33.444 41.3502C33.1524 41.7137 32.8041 42.0045 32.399 42.2226C31.9925 42.4388 31.5697 42.5468 31.1306 42.5468C30.6934 42.5468 30.3176 42.4387 29.9995 42.2226C29.6817 42.0045 29.4549 41.7138 29.3171 41.3502C29.1778 40.9848 29.1554 40.58 29.2482 40.136C29.3406 39.6939 29.5316 39.2911 29.8232 38.9276C30.1133 38.5622 30.4617 38.2714 30.8702 38.0553C31.2791 37.8371 31.7 37.7291 32.1371 37.7291ZM40.3276 36.061C40.1362 36.0747 39.9475 36.1317 39.7637 36.23C39.58 36.3282 39.4566 36.454 39.3954 36.6072L38.503 40.8787L37.8067 44.211H39.4233L40.1195 40.8787H41.1824L42.4 44.211H44.2672L43.031 40.8375C43.4181 40.7608 43.7816 40.6115 44.1174 40.3895C44.4537 40.1655 44.7429 39.8885 44.9837 39.5544C45.2244 39.2204 45.3859 38.8569 45.4676 38.4659C45.5595 38.0258 45.5353 37.6211 45.3975 37.2576C45.2601 36.8921 45.0333 36.6014 44.717 36.3852C44.4028 36.1691 44.027 36.061 43.5899 36.061H41.1261H40.3275L40.3276 36.061ZM40.7846 37.6957H43.2483C43.4582 37.6957 43.6213 37.7704 43.7393 37.9217C43.8573 38.073 43.8949 38.2557 43.851 38.4659C43.8062 38.6801 43.6919 38.8648 43.5106 39.016C43.3295 39.1673 43.1347 39.244 42.9248 39.244H41.2791C41.0877 39.2577 40.8991 39.3147 40.7153 39.413C40.5315 39.5112 40.4082 39.637 40.347 39.7902L40.4611 39.244L40.7846 37.6957L40.7846 37.6957ZM50.8644 36.061H49.7822C49.5908 36.0747 49.4021 36.1317 49.2183 36.23C49.0346 36.3282 48.9112 36.454 48.85 36.6072L48.6226 37.6957H50.5228L49.1615 44.211H50.7781L52.1394 37.6957H54.0358L54.3773 36.061H52.481H50.8644ZM58.465 38.5642C58.4447 38.7449 58.4808 38.8883 58.5666 38.9984C58.6544 39.1084 58.7522 39.189 58.8592 39.244C58.9686 39.297 59.0428 39.3324 59.0866 39.3462C59.1013 39.3501 59.1087 39.352 59.1087 39.352C59.3903 39.4365 59.6611 39.5446 59.9188 39.6782C60.1789 39.8099 60.4032 39.9729 60.5946 40.1635C60.7856 40.3561 60.9226 40.584 61.007 40.8492C61.0896 41.1145 61.0959 41.419 61.0236 41.7648C60.93 42.2128 60.7335 42.6235 60.4387 42.9928C60.1435 43.3642 59.7905 43.6589 59.3769 43.8809C58.9656 44.101 58.5365 44.211 58.0935 44.211H58.0877C57.6427 44.211 57.2616 44.101 56.9403 43.8809C56.6214 43.6589 56.3896 43.3642 56.2496 42.9928C56.1091 42.6235 56.0861 42.2128 56.1797 41.7648H57.7963C57.7521 41.9947 57.7912 42.1892 57.9138 42.3464C58.0364 42.5036 58.2065 42.5822 58.428 42.5822H58.4338C58.6534 42.5822 58.8606 42.5017 59.0536 42.3405C59.2466 42.1794 59.3665 41.9869 59.4128 41.7648C59.444 41.6155 59.4312 41.4819 59.3753 41.368C59.3199 41.252 59.2359 41.1518 59.1218 41.0654C59.0097 40.9789 58.8784 40.9003 58.7281 40.8296C58.5777 40.7588 58.4211 40.6901 58.2559 40.6252C58.0551 40.5447 57.8672 40.4582 57.6864 40.3658C57.5055 40.2735 57.3587 40.1674 57.2434 40.0495C57.2041 40.0142 57.1624 39.9631 57.1165 39.8943C56.9933 39.7214 56.9056 39.5367 56.8553 39.3402C56.814 39.1752 56.8 39.0003 56.8122 38.8117C56.8215 38.7115 56.839 38.6093 56.8603 38.5071C56.9543 38.0572 57.1486 37.6485 57.4437 37.2772C57.7385 36.9078 58.0939 36.6111 58.5052 36.391C58.9184 36.171 59.3455 36.061 59.7905 36.061H59.7963C60.2393 36.061 60.6224 36.171 60.9417 36.391C61.263 36.6111 61.4924 36.9077 61.6329 37.2772C61.7729 37.6485 61.7982 38.0572 61.7043 38.5071H60.0935C60.1403 38.2831 60.1005 38.0926 59.9763 37.9334C59.8522 37.7743 59.6782 37.6957 59.4548 37.6957H59.4489C59.2274 37.6957 59.0226 37.7743 58.8319 37.9334C58.6413 38.0926 58.5237 38.2831 58.4769 38.5071C58.4732 38.5248 58.4691 38.5445 58.465 38.5641L58.465 38.5642ZM17.7185 45.7677L17.9426 48.9999H17.2784L17.2309 48.2994H16.3663L16.0439 48.9999H15.3804L16.7736 45.9843C16.7956 45.9236 16.8393 45.8737 16.9032 45.8347C16.9671 45.7957 17.037 45.7731 17.1113 45.7677H17.5336H17.7185H17.7185ZM48.9098 46.3509H53.9723L53.8316 46.7286H48.9098V46.3509ZM48.9098 47.1917H53.5609L53.4203 47.5695H48.9097V47.1917H48.9098ZM48.9098 48.0505H53.1407L53 48.4282H48.9098V48.0505ZM14.9433 46.3509H9.88069L10.0214 46.7287H14.9433V46.3509ZM14.9433 47.1918H10.292L10.4327 47.5695H14.9433V47.1918H14.9433ZM14.9433 48.0505H10.7123L10.8529 48.4282H14.9433V48.0505ZM32.8792 45.7678C32.8033 45.7732 32.7285 45.7958 32.6557 45.8348C32.5829 45.8738 32.534 45.9236 32.5098 45.9844L32.1588 47.6784L31.8849 49H32.526L32.7999 47.6784H33.777C33.9504 47.6784 34.1172 47.6356 34.2777 47.5491C34.4388 47.4633 34.5768 47.348 34.6916 47.2031C34.8062 47.0589 34.8826 46.8984 34.9192 46.7215C34.9554 46.547 34.9456 46.3865 34.8907 46.2423C34.8359 46.0974 34.7458 45.9821 34.6202 45.8964C34.4954 45.8106 34.3463 45.7678 34.173 45.7678H33.1959H32.8792V45.7678ZM33.0615 46.4161H34.0386C34.1218 46.4161 34.1866 46.4457 34.2335 46.5057C34.2804 46.5657 34.2955 46.6381 34.2782 46.7215C34.2606 46.8065 34.2153 46.8798 34.1436 46.9397C34.0718 46.9997 33.9946 47.0301 33.9114 47.0301H33.2587C33.1828 47.0356 33.108 47.0582 33.0352 47.0971C32.9624 47.1361 32.9135 47.186 32.8894 47.2468L32.9343 47.0301L33.0615 46.4161L33.0615 46.4161ZM37.471 45.7678L37.6596 49H36.9954L36.9556 48.2995H36.091L35.7609 49H35.0975L36.5238 45.9844C36.5464 45.9236 36.5907 45.8738 36.655 45.8348C36.7193 45.7958 36.7895 45.7732 36.8639 45.7678H37.2861H37.4711H37.471ZM36.3972 47.6512L36.2976 47.8678C36.321 47.807 36.3652 47.7571 36.4296 47.7182C36.4939 47.6792 36.5641 47.6566 36.6407 47.6512H36.9182L36.8637 46.6647L36.3973 47.6512H36.3972ZM39.8012 45.7678C39.7253 45.7732 39.6505 45.7958 39.5777 45.8348C39.5049 45.8738 39.456 45.9236 39.4319 45.9844L39.0808 47.6784L38.8069 49H39.4481L39.722 47.6784H40.1435L40.6286 49H41.3692L40.8766 47.6621C41.0301 47.6317 41.1741 47.5725 41.3072 47.4844C41.4404 47.3955 41.5549 47.2857 41.6501 47.1532C41.7454 47.0207 41.8092 46.8766 41.8413 46.7215C41.8775 46.547 41.8676 46.3865 41.8127 46.2423C41.758 46.0974 41.6678 45.9821 41.5423 45.8964C41.4174 45.8106 41.2684 45.7678 41.095 45.7678H40.1179H39.8012V45.7678ZM39.9836 46.4161H40.9607C41.0439 46.4161 41.1087 46.4457 41.1555 46.5057C41.2025 46.5657 41.2175 46.6381 41.2002 46.7215C41.1826 46.8065 41.1374 46.8798 41.0656 46.9397C40.9938 46.9997 40.9167 47.0301 40.8334 47.0301H40.1807C40.1049 47.0356 40.03 47.0582 39.9572 47.0971C39.8844 47.1361 39.8355 47.186 39.8114 47.2468L39.8563 47.0301L39.9835 46.4161L39.9836 46.4161ZM43.94 45.7678H43.5107C43.4349 45.7732 43.36 45.7958 43.2872 45.8348C43.2144 45.8738 43.1656 45.9236 43.1414 45.9844L43.052 46.4161H43.8056L43.2701 49H43.9112L44.4467 46.4161H45.1988L45.3332 45.7678H44.5811H43.94ZM46.9159 46.7605C46.908 46.8322 46.9224 46.8891 46.9565 46.9327C46.9914 46.9763 47.0302 47.0083 47.0727 47.0301C47.1162 47.0511 47.1456 47.0652 47.163 47.0706C47.1688 47.0722 47.1717 47.0729 47.1717 47.0729C47.2835 47.1065 47.391 47.1493 47.4932 47.2023C47.5964 47.2545 47.6855 47.3192 47.7616 47.3948C47.8374 47.4712 47.8919 47.5616 47.9256 47.6668C47.9585 47.772 47.9613 47.8927 47.9328 48.0299C47.896 48.2075 47.8183 48.3704 47.7017 48.5169C47.5848 48.6642 47.445 48.7811 47.2811 48.8691C47.1182 48.9563 46.9481 49 46.7724 49H46.7701C46.5936 49 46.4424 48.9563 46.3148 48.8691C46.1882 48.781 46.096 48.6641 46.0403 48.5169C45.9843 48.3704 45.9749 48.2075 46.0117 48.0299H46.6529C46.6355 48.121 46.6511 48.1982 46.6998 48.2606C46.7486 48.3229 46.8161 48.354 46.904 48.354H46.9063C46.9934 48.354 47.0755 48.3221 47.1519 48.2582C47.2284 48.1943 47.2758 48.1179 47.294 48.0299C47.3063 47.9707 47.3011 47.9177 47.2789 47.8724C47.2568 47.8265 47.2234 47.7868 47.1781 47.7525C47.1336 47.7182 47.0815 47.687 47.0218 47.6589C46.9621 47.6309 46.9 47.6036 46.8344 47.5779C46.7547 47.5459 46.6801 47.5117 46.6084 47.475C46.5365 47.4384 46.4782 47.3963 46.4324 47.3496C46.4169 47.3356 46.4002 47.3153 46.382 47.288C46.333 47.2194 46.2981 47.1462 46.278 47.0683C46.2615 47.0028 46.2559 46.9334 46.2606 46.8587C46.2642 46.8189 46.2711 46.7784 46.2795 46.7379C46.3164 46.5594 46.3932 46.3973 46.51 46.2501C46.6267 46.1035 46.7674 45.9859 46.9304 45.8986C47.0941 45.8114 47.2634 45.7677 47.4399 45.7677H47.4422C47.6179 45.7677 47.7699 45.8114 47.8967 45.8986C48.0242 45.9859 48.1154 46.1036 48.1714 46.2501C48.2272 46.3973 48.2375 46.5594 48.2005 46.7379H47.5617C47.5801 46.649 47.5642 46.5734 47.5149 46.5103C47.4655 46.4472 47.3965 46.416 47.3078 46.416H47.3055C47.2177 46.416 47.1365 46.4472 47.061 46.5103C46.9855 46.5734 46.939 46.649 46.9206 46.7379C46.9191 46.7449 46.9175 46.7527 46.9159 46.7604L46.9159 46.7605ZM16.6653 47.6512L16.5681 47.8678C16.5908 47.807 16.6345 47.7571 16.6984 47.7182C16.7623 47.6792 16.8323 47.6566 16.9089 47.6512H17.1863L17.1209 46.6647L16.6654 47.6512H16.6653ZM19.762 45.7678C19.6861 45.7732 19.6116 45.7958 19.5392 45.8348C19.4668 45.8738 19.4185 45.9236 19.395 45.9844L19.0572 47.7057C19.0106 47.9434 19.0258 48.16 19.1029 48.3563C19.18 48.5527 19.3043 48.7086 19.4748 48.8254C19.6454 48.9416 19.8489 49 20.0855 49C20.3197 49 20.5454 48.9416 20.7616 48.8254C20.978 48.7086 21.1634 48.5527 21.3176 48.3563C21.4717 48.16 21.5728 47.9434 21.6194 47.7057L21.9997 45.7678H21.6861C21.608 45.7732 21.5327 45.7958 21.4603 45.8348C21.3879 45.8738 21.3396 45.9236 21.3161 45.9844L21.2314 46.4161L21.2153 46.4979L20.9783 47.7057C20.955 47.8241 20.9045 47.9325 20.8274 48.0306C20.7504 48.1288 20.6571 48.2075 20.5485 48.266C20.4399 48.3244 20.3278 48.354 20.2122 48.354C20.0943 48.354 19.993 48.3244 19.9074 48.266C19.8218 48.2075 19.7602 48.1288 19.7209 48.0306C19.6823 47.9324 19.6751 47.8241 19.6983 47.7057L19.9354 46.4979L19.9514 46.4161L20.0786 45.7678H19.762ZM23.9145 45.7678H23.4853C23.4095 45.7732 23.3349 45.7958 23.2626 45.8348C23.1902 45.8738 23.1419 45.9236 23.1184 45.9844L23.0336 46.4161H23.7873L23.2802 49H23.9213L24.4284 46.4161H25.1805L25.3078 45.7678H24.5557H23.9145ZM27.7211 45.7678C27.5015 45.7678 27.2861 45.8091 27.0754 45.8932C26.8649 45.9766 26.6718 46.0927 26.4971 46.2408C26.3215 46.3896 26.1737 46.5618 26.0528 46.7574C25.9312 46.953 25.8494 47.1618 25.8058 47.3839C25.7619 47.6075 25.7616 47.8171 25.8064 48.0127C25.8505 48.2083 25.9309 48.3797 26.0483 48.5278C26.165 48.675 26.3127 48.7904 26.4903 48.8745C26.6682 48.9579 26.8672 49 27.0868 49C27.308 49 27.5235 48.9579 27.7333 48.8745C27.9433 48.7903 28.1354 48.675 28.3107 48.5278C28.4854 48.3797 28.6331 48.2083 28.7547 48.0127C28.8755 47.8171 28.9583 47.6075 29.0022 47.3839C29.0457 47.1618 29.0451 46.953 29.001 46.7574C28.9562 46.5618 28.876 46.3896 28.7595 46.2408C28.6421 46.0927 28.4954 45.9766 28.3184 45.8932C28.1415 45.8091 27.9423 45.7678 27.7211 45.7678ZM27.5913 46.4293C27.7655 46.4293 27.9158 46.4722 28.0421 46.5587C28.1679 46.6444 28.2593 46.7597 28.3164 46.9046C28.3728 47.0488 28.3839 47.2085 28.3495 47.3839C28.3149 47.56 28.241 47.7205 28.1278 47.8654C28.014 48.0096 27.8773 48.1249 27.7178 48.2114C27.5576 48.2971 27.3905 48.34 27.2164 48.34C27.043 48.34 26.8934 48.2971 26.7661 48.2114C26.639 48.1249 26.5476 48.0096 26.4911 47.8654C26.434 47.7205 26.4231 47.56 26.4577 47.3839C26.4921 47.2085 26.5658 47.0488 26.6797 46.9046C26.7929 46.7597 26.9296 46.6444 27.0905 46.5587C27.2515 46.4722 27.4179 46.4293 27.5913 46.4293ZM32.8038 21.3576C32.7037 21.337 32.5931 21.2303 32.5831 21.125C32.5747 20.9551 32.748 20.8915 32.8883 20.8968C33.028 20.9058 33.2549 20.9861 33.3784 21.0536C33.4713 21.1044 33.4811 21.2211 33.3871 21.2771C33.2862 21.3314 32.9173 21.3783 32.8038 21.3576H32.8038ZM25.0479 23.9043C24.4355 23.9043 23.939 23.4023 23.939 22.783C23.939 22.1637 24.4355 21.6616 25.0479 21.6616C25.6603 21.6616 26.1568 22.1637 26.1568 22.783C26.1568 23.4023 25.6603 23.9043 25.0479 23.9043ZM34.5896 23.9043C33.9771 23.9043 33.4807 23.4023 33.4807 22.783C33.4807 22.1637 33.9771 21.6616 34.5896 21.6616C35.202 21.6616 35.6985 22.1637 35.6985 22.783C35.6985 23.4023 35.202 23.9043 34.5896 23.9043ZM24.3211 22.7504H24.8154V22.8156H24.3211C24.3285 22.9885 24.3956 23.152 24.5112 23.2796L24.8608 22.9261L24.8835 22.9491L24.9063 22.9722L24.5567 23.3257C24.683 23.4425 24.8447 23.5104 25.0156 23.5179V23.018H25.0801V23.5179C25.2511 23.5104 25.4128 23.4426 25.539 23.3257L25.1894 22.9722L25.2122 22.9491L25.235 22.9261L25.5846 23.2796C25.7001 23.152 25.7672 22.9885 25.7747 22.8156H25.2803V22.7504H25.7747C25.7672 22.5774 25.7002 22.414 25.5846 22.2863L25.235 22.6398L25.2122 22.6168L25.1894 22.5938L25.539 22.2402C25.4128 22.1234 25.2511 22.0556 25.0801 22.048V22.548H25.0156V22.048C24.8446 22.0556 24.683 22.1234 24.5567 22.2402L24.9063 22.5938L24.8835 22.6168L24.8608 22.6398L24.5112 22.2863C24.3956 22.414 24.3285 22.5775 24.3211 22.7504ZM25.0828 22.9146C25.1057 22.9084 25.1295 22.9223 25.1357 22.9455C25.1418 22.9687 25.1281 22.9928 25.1051 22.999C25.0822 23.0052 25.0584 22.9913 25.0522 22.9681C25.046 22.9449 25.0598 22.9208 25.0828 22.9146ZM25.013 22.9146C25.0359 22.9208 25.0497 22.9449 25.0435 22.9681C25.0374 22.9913 25.0135 23.0052 24.9906 22.999C24.9677 22.9928 24.9539 22.9687 24.9601 22.9455C24.9662 22.9223 24.99 22.9084 25.013 22.9146ZM24.9233 22.835C24.9324 22.8572 24.9218 22.8829 24.8999 22.8921C24.8779 22.9012 24.8525 22.8906 24.8434 22.8684C24.8344 22.8462 24.8449 22.8205 24.8669 22.8113C24.8888 22.8021 24.9142 22.8128 24.9233 22.835ZM25.0828 22.6514C25.0598 22.6451 25.046 22.621 25.0522 22.5978C25.0584 22.5746 25.0822 22.5607 25.1051 22.5669C25.1281 22.5731 25.1418 22.5972 25.1357 22.6204C25.1295 22.6436 25.1057 22.6575 25.0828 22.6514ZM25.1724 22.7309C25.1634 22.7087 25.1739 22.6831 25.1959 22.6739C25.2178 22.6647 25.2432 22.6753 25.2523 22.6976C25.2614 22.7198 25.2508 22.7455 25.2289 22.7547C25.2069 22.7638 25.1815 22.7531 25.1724 22.7309ZM25.013 22.6514C24.99 22.6575 24.9662 22.6436 24.9601 22.6204C24.9539 22.5972 24.9677 22.5731 24.9906 22.5669C25.0135 22.5607 25.0374 22.5746 25.0435 22.5978C25.0497 22.621 25.0359 22.6451 25.013 22.6514ZM24.9233 22.7309C24.9142 22.7531 24.8888 22.7638 24.8669 22.7547C24.8449 22.7455 24.8344 22.7198 24.8434 22.6976C24.8525 22.6753 24.8779 22.6647 24.8999 22.6739C24.9218 22.6831 24.9324 22.7087 24.9233 22.7309ZM25.0479 22.8483C25.0122 22.8483 24.9833 22.819 24.9833 22.783C24.9833 22.7469 25.0122 22.7176 25.0479 22.7176C25.0835 22.7176 25.1124 22.7469 25.1124 22.783C25.1124 22.819 25.0835 22.8483 25.0479 22.8483ZM25.1724 22.835C25.1815 22.8128 25.2069 22.8021 25.2289 22.8113C25.2508 22.8205 25.2614 22.8462 25.2523 22.8684C25.2432 22.8906 25.2178 22.9012 25.1959 22.8921C25.1739 22.8829 25.1634 22.8572 25.1724 22.835ZM33.8628 22.7504H34.3572V22.8156H33.8628C33.8703 22.9885 33.9373 23.152 34.0529 23.2796L34.4025 22.9261L34.4253 22.9491L34.448 22.9722L34.0985 23.3257C34.2247 23.4425 34.3864 23.5104 34.5574 23.5179V23.018H34.6218V23.5179C34.7928 23.5104 34.9545 23.4426 35.0808 23.3257L34.7312 22.9722L34.7539 22.9491L34.7767 22.9261L35.1263 23.2796C35.2419 23.152 35.3089 22.9885 35.3164 22.8156H34.822V22.7504H35.3164C35.309 22.5774 35.2419 22.414 35.1263 22.2863L34.7767 22.6398L34.7539 22.6168L34.7312 22.5938L35.0808 22.2402C34.9545 22.1234 34.7928 22.0556 34.6218 22.048V22.548H34.5574V22.048C34.3864 22.0556 34.2247 22.1234 34.0985 22.2402L34.448 22.5938L34.4253 22.6168L34.4025 22.6398L34.0529 22.2863C33.9373 22.414 33.8703 22.5775 33.8628 22.7504ZM34.6245 22.9146C34.6475 22.9084 34.6713 22.9223 34.6774 22.9455C34.6836 22.9687 34.6698 22.9928 34.6469 22.999C34.6239 23.0052 34.6001 22.9913 34.5939 22.9681C34.5878 22.9449 34.6016 22.9208 34.6245 22.9146ZM34.5547 22.9146C34.5777 22.9208 34.5914 22.9449 34.5853 22.9681C34.5791 22.9913 34.5553 23.0052 34.5323 22.999C34.5094 22.9928 34.4956 22.9687 34.5018 22.9455C34.508 22.9223 34.5318 22.9084 34.5547 22.9146ZM34.465 22.835C34.4741 22.8572 34.4635 22.8829 34.4416 22.8921C34.4197 22.9012 34.3943 22.8906 34.3852 22.8684C34.3761 22.8462 34.3866 22.8205 34.4086 22.8113C34.4305 22.8021 34.456 22.8128 34.465 22.835ZM34.6245 22.6514C34.6016 22.6451 34.5878 22.621 34.5939 22.5978C34.6001 22.5746 34.6239 22.5607 34.6469 22.5669C34.6698 22.5731 34.6836 22.5972 34.6774 22.6204C34.6713 22.6436 34.6475 22.6575 34.6245 22.6514ZM34.7142 22.7309C34.7051 22.7087 34.7156 22.6831 34.7376 22.6739C34.7596 22.6647 34.785 22.6753 34.7941 22.6976C34.8031 22.7197 34.7925 22.7455 34.7706 22.7547C34.7486 22.7638 34.7232 22.7531 34.7142 22.7309ZM34.5547 22.6514C34.5318 22.6575 34.508 22.6436 34.5018 22.6204C34.4956 22.5972 34.5094 22.5731 34.5323 22.5669C34.5553 22.5607 34.5791 22.5746 34.5853 22.5978C34.5914 22.621 34.5777 22.6451 34.5547 22.6514ZM34.465 22.7309C34.456 22.7531 34.4305 22.7638 34.4086 22.7547C34.3866 22.7455 34.3761 22.7198 34.3852 22.6976C34.3943 22.6753 34.4197 22.6647 34.4416 22.6739C34.4635 22.6831 34.4741 22.7087 34.465 22.7309ZM34.5896 22.8483C34.5539 22.8483 34.525 22.819 34.525 22.783C34.525 22.7469 34.5539 22.7176 34.5896 22.7176C34.6253 22.7176 34.6542 22.7469 34.6542 22.783C34.6542 22.819 34.6253 22.8483 34.5896 22.8483ZM34.7142 22.835C34.7232 22.8128 34.7486 22.8021 34.7706 22.8113C34.7925 22.8205 34.8031 22.8462 34.7941 22.8684C34.785 22.8906 34.7596 22.9012 34.7376 22.8921C34.7156 22.8829 34.7051 22.8572 34.7142 22.835ZM22.3335 22.4969H23.7838L23.7822 22.5041C23.7585 22.6105 23.7467 22.7191 23.7467 22.828C23.7467 23.0217 23.7839 23.2133 23.8581 23.392L23.8616 23.4003L23.7734 23.3992L22.7465 23.0128L22.3335 22.4969H22.3335ZM36.0084 23.0124H37.8198C37.8891 22.9588 37.9584 22.9054 38.0278 22.8519C38.0707 22.8482 38.0558 22.9234 38.026 22.9432C37.5173 23.2815 36.4498 23.4111 35.8634 23.4053C35.9261 23.292 35.976 23.1529 36.0084 23.0124H36.0084ZM27.9362 21.3947L28.0321 21.6393L33.0569 22.0482L27.9362 21.3947ZM26.981 23.1382L27.1269 22.8688L33.1024 23.1895L26.981 23.1382V23.1382ZM28.9163 22.7709L28.4105 22.5463C28.3713 22.5289 28.3423 22.5029 28.3206 22.4656L27.6956 21.3928C27.6803 21.3664 27.6766 21.338 27.6847 21.3084C27.6929 21.2789 27.7104 21.2563 27.7373 21.2419L28.1106 21.0424C28.1148 21.0401 28.1168 21.0351 28.1152 21.0304C28.1136 21.0258 28.1089 21.023 28.1042 21.024L27.4126 21.1678C27.3632 21.1781 27.3245 21.2078 27.3044 21.2545C27.2842 21.3013 27.2882 21.3509 27.3154 21.3938L28.0216 22.5059C28.0648 22.5739 28.1269 22.6148 28.2049 22.6322L28.9104 22.7896C28.9153 22.7906 28.9201 22.7877 28.9216 22.7829C28.9231 22.7781 28.9208 22.7729 28.9163 22.7709ZM26.2711 21.4274L26.9842 22.4297C27.053 22.5265 27.0589 22.6474 27.0007 22.751L26.7258 23.2403C26.7234 23.2447 26.7179 23.2464 26.7133 23.2443C26.7087 23.2422 26.7064 23.2368 26.7082 23.232L26.9031 22.705C26.9283 22.6369 26.9215 22.5674 26.8846 22.505L26.2547 21.4382C26.2521 21.4337 26.2535 21.4277 26.2579 21.4249C26.2623 21.422 26.2681 21.4232 26.2711 21.4274V21.4274ZM36.9641 22.356C37.0228 22.3623 37.4176 22.3988 37.4388 22.3622C37.4513 22.3406 37.3499 22.2633 37.3337 22.2495C37.2014 22.1361 37.0682 22.0464 36.918 21.9593C36.6402 21.8045 36.3047 21.677 35.99 21.6323C35.8915 21.6183 35.9402 21.6429 35.9897 21.6828C36.2326 21.8786 36.4467 22.0707 36.7121 22.24C36.7796 22.2822 36.8849 22.345 36.9642 22.356H36.9641ZM27.9588 20.6916L28.4109 20.1923L28.9344 20.1561L29.1724 20.9202L27.9588 20.6916ZM29.1367 20.1622L29.3806 20.9533L31.9573 21.3998C32.0307 21.4125 32.0941 21.418 32.1686 21.418H32.8498L32.8873 21.4976L33.2849 21.4255L33.4462 21.289L33.8475 21.1487C32.8759 20.7585 31.8147 20.4322 30.7576 20.1791C30.6207 20.1463 30.5004 20.1334 30.3599 20.1364L29.1368 20.1622H29.1367ZM22.5125 20.8526L22.6946 21.2048C22.7327 21.2784 22.8031 21.3215 22.8853 21.3215H23.3188C23.3516 21.3215 23.3707 21.2956 23.3858 21.2661C23.4718 21.0976 22.9434 20.7805 22.528 20.8235C22.5213 20.8242 22.5158 20.8279 22.5126 20.8338C22.5094 20.8399 22.5094 20.8465 22.5125 20.8526ZM24.5596 9.26305C23.9782 9.30551 23.4329 9.48126 22.9295 9.78425C22.4261 10.0873 22.1264 10.4752 22.0365 10.9478V24.1229V34.4012H27.0227V24.3347H30.3009L36.2041 34.4012H41.9635L35.9764 23.9957C37.1211 23.7593 38.1459 23.2987 39.0389 22.6139C39.9318 21.923 40.645 21.0685 41.1724 20.0383C41.6997 19.008 41.9635 17.8868 41.9635 16.6808C41.9635 15.3233 41.6279 14.0749 40.9686 12.9537C40.3094 11.8265 39.4224 10.9296 38.3077 10.2629C37.199 9.5963 35.9704 9.26298 34.6219 9.26298H27.0227H24.5596V9.26305ZM27.0227 14.3052H34.6219C35.2692 14.3052 35.8205 14.5356 36.282 15.0022C36.7435 15.4688 36.9772 16.0324 36.9772 16.6809C36.9772 17.3415 36.7435 17.9111 36.282 18.3778C35.8205 18.8444 35.2692 19.0808 34.6219 19.0808H29.5458C28.9645 19.1232 28.4191 19.299 27.9157 19.602C27.7031 19.7299 27.5269 19.873 27.3875 20.0311L28.164 19.9319C29.5384 19.74 31.5882 19.8391 34.3456 21.104C36.484 21.2256 37.9862 22.5463 37.9862 22.5463L37.6904 22.8819H35.935L35.9118 22.8867C35.9145 22.8522 35.9158 22.8171 35.9158 22.7819C35.9158 22.0315 35.3142 21.4232 34.5722 21.4232C33.8302 21.4232 33.2287 22.0315 33.2287 22.7819C33.2287 23.0106 33.2846 23.226 33.3833 23.415L26.2409 23.4255L26.2258 23.4253C26.306 23.2442 26.351 23.0417 26.351 22.828C26.351 22.0569 25.7667 21.4318 25.0459 21.4318C24.5287 21.4318 24.0819 21.7536 23.8706 22.2202H22.4857H22.4206C22.2955 22.2202 22.1932 22.1168 22.1932 21.9903V21.9903C22.1932 21.8638 22.2955 21.7603 22.4206 21.7603H22.5759L22.5801 21.372L22.2938 20.7082L25.3762 20.2883L27.0227 20.0778V19.0808V14.3052L27.0227 14.3052ZM46.5961 9.26305C46.0148 9.30551 45.4694 9.48126 44.966 9.78425C44.4626 10.0873 44.1629 10.4752 44.073 10.9478V19.3959V24.4381V34.4013H56.5865C57.947 34.4013 59.1876 34.0619 60.3083 33.3892C61.435 32.7165 62.3279 31.8075 62.9991 30.6742C63.6644 29.5348 64 28.2804 64 26.9107C64 25.5593 63.6704 24.323 63.0231 23.1957C62.3759 22.0746 61.5129 21.1716 60.4341 20.4989C61.0574 19.3838 61.363 18.1717 61.363 16.8566C61.363 15.4627 61.0274 14.19 60.3442 13.0447C59.667 11.8932 58.7621 10.9781 57.6234 10.2872C56.4907 9.60242 55.2321 9.26305 53.8477 9.26305H46.5961ZM53.8477 24.4381H56.5865C57.2458 24.4381 57.8091 24.6805 58.2946 25.1714C58.774 25.6562 59.0138 26.2319 59.0138 26.9107C59.0138 27.5834 58.774 28.1652 58.2946 28.65C57.8091 29.1348 57.2458 29.3773 56.5865 29.3773H51.5823C51.001 29.4257 50.4556 29.5954 49.9522 29.8924C49.4488 30.1893 49.1491 30.5772 49.0592 31.062V29.3773V24.4381H53.8477H53.8477ZM49.0593 14.3052H53.8477C54.543 14.3052 55.1362 14.5537 55.6337 15.0567C56.1311 15.5597 56.3768 16.1597 56.3768 16.8566C56.3768 17.5475 56.1311 18.1414 55.6337 18.6444C55.1362 19.1475 54.543 19.3959 53.8477 19.3959H51.5824C51.001 19.4444 50.4557 19.6202 49.9522 19.9232C49.4489 20.2262 49.1492 20.6141 49.0593 21.0867V19.3959V14.3052Z" fill="var(--fill-0, white)"/>
</svg>
