<svg preserveAspectRatio="none" width="100%" height="100%" overflow="visible" style="display: block;" viewBox="0 0 11.6484 11.6484" fill="none" xmlns="http://www.w3.org/2000/svg">
<path id="Icon" d="M4.64844 8.75L9.89844 3.5L9.07812 2.65234L4.64844 7.08203L2.57031 5.00391L1.75 5.82422L4.64844 8.75V8.75M1.70898 1.70898C2.84831 0.569661 4.22005 0 5.82422 0C7.42839 0 8.80013 0.569661 9.93945 1.70898C11.0788 2.84831 11.6484 4.22005 11.6484 5.82422C11.6484 7.42839 11.0788 8.80013 9.93945 9.93945C8.80013 11.0788 7.42839 11.6484 5.82422 11.6484C4.22005 11.6484 2.84831 11.0788 1.70898 9.93945C0.569661 8.80013 0 7.42839 0 5.82422C0 4.22005 0.569661 2.84831 1.70898 1.70898V1.70898" fill="var(--fill-0, #9CA3AF)"/>
</svg>
