<svg xmlns="http://www.w3.org/2000/svg" width="520" height="360" viewBox="0 0 520 360" fill="none">
  <rect width="520" height="360" fill="#141414"/>
  <g opacity=".72" stroke="#3a3a3a" stroke-width="1.15" stroke-linecap="round" stroke-linejoin="round">
    <path d="M-34 52c52-41 111-48 154-25 35 18 62 15 99-11 54-38 116-23 143 17 21 31 58 35 103 13 32-16 65-14 92 5"/>
    <path d="M-22 76c47-35 96-39 134-18 42 23 75 16 114-13 43-32 93-19 117 16 29 42 76 44 123 18 27-15 52-12 76 3"/>
    <path d="M-10 102c40-28 80-31 114-12 47 26 91 17 130-10 32-23 69-15 91 15 36 49 94 52 141 24 25-15 46-10 64 4"/>
    <path d="M6 129c31-20 61-21 91-7 53 25 108 21 150-7 25-17 51-10 69 14 42 54 110 60 154 31 19-12 34-8 48 5"/>
    <path d="M18 156c24-13 48-13 73-2 61 27 125 26 170-3 17-11 33-8 48 10 46 56 125 68 167 39 13-9 23-5 33 6"/>
    <path d="M29 185c18-8 36-7 58 2 68 28 141 31 188 2 11-7 22-5 34 8 49 54 138 76 177 49 8-6 15-3 22 6"/>
    <path d="M42 215c12-4 25-3 43 4 75 29 153 35 202 7 8-4 15-2 25 7 52 50 150 81 186 57"/>
    <path d="M54 247c9-1 18 1 31 6 79 29 164 39 215 13 8-4 15-1 25 6 52 40 142 75 185 66"/>
    <path d="M68 282c83 28 172 45 235 22 15-6 27-3 43 6 47 27 106 48 161 49"/>
    <path d="M80 318c73 22 149 35 218 22 27-5 48-3 72 8 38 17 83 24 132 20"/>

    <path d="M386-24c-21 26-23 60-5 88 16 26 15 51-8 81-29 38-29 78 2 111 23 24 26 55 7 92"/>
    <path d="M416-18c-18 24-18 50-4 75 19 33 15 66-7 93-23 28-21 58 3 86 27 31 34 67 14 111"/>
    <path d="M449-8c-14 20-13 39-2 59 21 39 14 82-7 108-16 20-14 40 4 63 31 38 42 78 22 126"/>
    <path d="M482 8c-8 14-8 28 0 44 21 42 16 92-4 119-11 15-10 29 5 48 33 42 50 84 35 133"/>

    <path d="M122 17c31 8 52 28 60 58 8 29 30 44 66 48 42 5 64 28 61 62-2 26 15 47 51 62"/>
    <path d="M109 43c25 7 41 22 48 46 10 36 40 56 78 60 31 4 47 20 45 45-2 32 22 59 62 74"/>
    <path d="M95 70c20 5 32 17 37 36 11 43 49 70 89 74 20 2 30 12 29 31-1 39 29 74 73 90"/>
    <path d="M81 99c15 4 23 12 27 27 12 48 56 83 97 89 13 2 19 8 19 21-1 44 34 86 81 104"/>

    <path d="M-18 285c42-22 75-22 105 3 21 18 46 19 74 3 39-22 77-18 105 16 23 28 55 36 94 22"/>
    <path d="M-4 312c34-16 58-15 82 5 30 26 64 26 96 8 30-17 57-13 80 14 29 35 69 46 111 28"/>
    <path d="M16 339c26-10 44-8 63 8 36 31 79 31 113 12 20-11 38-9 56 12"/>
  </g>
</svg>
